<svg xmlns="http://www.w3.org/2000/svg" width="400" height="400" viewBox="0 0 100 100"><defs><linearGradient id="a" x1="32.616" x2="155.64" y1="97.518" y2="97.518" gradientTransform="translate(-122.77 -129.53)scale(1.9953)" gradientUnits="userSpaceOnUse"><stop offset="0" stop-color="#47ebeb"/><stop offset="1" stop-color="#477eeb"/></linearGradient></defs><g transform="translate(-15.045 -15.045)"><path fill="url(#a)" d="M64.987 16.091 50.308 31.999l-17.549.818-.76 17.511L16.09 65.103l15.908 14.68.819 17.548 17.51.761L65.104 114l14.679-15.908 17.549-.818.76-17.511L114 64.988l-15.908-14.68-.818-17.548-17.511-.761z"/><circle cx="65.045" cy="65.045" r="33.101"/><g fill="#fff"><g stroke-width=".265" aria-label=".#. ####***-%@@@. . ###*@@@@@%@@@ . -##@@@#++. .. .@@@#+++= @ :@@@**+++=- @ -@@* . . @ @@@: * .++.: .@ .@@@. ++=:.- @@@: +.+=== :: .:==: ==."><path d="M70.865 44.325c0 .111.092.206.203.206a.216.216 0 0 0 .213-.206.22.22 0 0 0-.213-.21.21.21 0 0 0-.203.21m-1.7-2.07-.635 2.254h.171l.635-2.254zm.6 0-.635 2.254h.171l.635-2.254z"/><path d="M70.095 42.895h-1.492v.165h1.492zm-.13.7h-1.492v.165h1.492zm-2.67.73c0 .111.092.206.203.206a.216.216 0 0 0 .213-.206.22.22 0 0 0-.213-.21.21.21 0 0 0-.203.21"/><g fill="#ffce33"><path d="M85.135 47.615c0 .111.092.206.203.206a.216.216 0 0 0 .213-.206.22.22 0 0 0-.213-.21.21.21 0 0 0-.203.21m-1.08-.81-.025.371.089.147.17-.03-.05-.113.02-.388c.002-.082.005-.314.005-.425 0-.346-.044-.778-.565-.778-.505 0-.876.413-.876 1.172 0 .762.241 1.21.749 1.21.441 0 .597-.261.597-.261l-.114-.153-.07.003c-.057.096-.064.191-.369.191-.38 0-.552-.45-.552-1.067 0-.606.267-.892.603-.892.394 0 .4.305.4.552 0 .124-.01.372-.012.46z"/><path d="m84.085 46.995.089-.638c-.178-.016-.27-.026-.35-.026a.45.45 0 0 0-.444.46c0 .223.172.404.432.404.27 0 .273-.2.273-.2"/></g><path fill="#000" d="M83.605 46.785c0-.187.08-.298.248-.298.073 0 .235.022.235.022l-.026.362s-.028.158-.228.158c-.13 0-.229-.066-.229-.244"/><path fill="#ffce33" d="m82.275 46.805-.025.371.089.147.17-.03-.05-.113.02-.388c.002-.082.005-.314.005-.425 0-.346-.044-.778-.565-.778-.505 0-.876.413-.876 1.172 0 .762.241 1.21.75 1.21.44 0 .596-.261.596-.261l-.114-.153-.07.003c-.057.096-.064.191-.368.191-.381 0-.553-.45-.553-1.067 0-.606.267-.892.603-.892.394 0 .4.305.4.552 0 .124-.01.372-.012.46z"/><path fill="#ffce33" d="m82.295 46.995.089-.638c-.178-.016-.27-.026-.35-.026a.45.45 0 0 0-.444.46c0 .223.172.404.432.404.27 0 .273-.2.273-.2"/><path fill="#000" d="M81.825 46.785c0-.187.08-.298.248-.298.073 0 .235.022.235.022l-.026.362s-.028.158-.228.158c-.13 0-.229-.066-.229-.244"/><path fill="#ffce33" d="m80.485 46.805-.025.371.089.147.17-.03-.05-.113.02-.388c.002-.082.005-.314.005-.425 0-.346-.044-.778-.565-.778-.505 0-.876.413-.876 1.172 0 .762.241 1.21.75 1.21.44 0 .596-.261.596-.261l-.114-.153-.07.003c-.057.096-.064.191-.369.191-.38 0-.552-.45-.552-1.067 0-.606.267-.892.603-.892.394 0 .4.305.4.552 0 .124-.01.372-.012.46z"/><path fill="#ffce33" d="m80.515 46.995.089-.638c-.178-.016-.27-.026-.35-.026a.45.45 0 0 0-.444.46c0 .223.172.404.432.404.27 0 .273-.2.273-.2"/><path fill="#000" d="M80.035 46.785c0-.187.08-.298.248-.298.073 0 .235.022.235.022l-.026.362s-.028.158-.228.158c-.13 0-.229-.066-.229-.244"/><path fill="#ffce33" d="m78.865 45.645-1.422 2 .127.095 1.422-2zm-1.44.4c0 .235.178.429.406.429s.41-.194.41-.429-.181-.435-.41-.435-.406.2-.406.435"/><path fill="#000" d="M77.615 46.035c0-.159.064-.292.222-.292s.22.133.22.292-.061.298-.22.298-.222-.14-.222-.298"/><path fill="#ffce33" d="M78.185 47.345c0 .235.178.429.406.429s.41-.194.41-.429-.181-.435-.41-.435-.406.2-.406.435"/><path fill="#000" d="M78.375 47.345c0-.159.064-.292.222-.292s.22.133.22.292-.061.298-.22.298c-.158 0-.222-.14-.222-.298"/><path d="m76.085 46.835-.025.232.349-.016.336.016.026-.232-.362.016zm-1.61-1.29.083.476-.451-.235-.102.302.489.08-.368.368.26.177.248-.435.241.435.26-.177-.362-.369.483-.08-.102-.3-.444.234.082-.476zm-1.78 0 .083.476-.451-.235-.102.302.49.08-.37.368.261.177.248-.435.241.435.26-.177-.362-.369.483-.08-.101-.3-.445.234.082-.476zm-1.78 0 .083.476-.451-.235-.102.302.489.08-.368.368.26.177.248-.435.241.435.26-.177-.362-.369.483-.08-.102-.3-.444.234.082-.476zm-1.75 0-.635 2.254h.171l.635-2.254zm.6 0-.635 2.254h.171l.635-2.254z"/><path d="M70.095 46.185h-1.492v.165h1.492zm-.13.7h-1.492v.165h1.492zm-2.58-1.34-.635 2.254h.171l.635-2.254zm.6 0-.635 2.254h.171l.635-2.254z"/><path d="M68.305 46.185h-1.492v.165h1.492zm-.12.7h-1.492v.165h1.492zm-2.59-1.34-.635 2.254h.171l.635-2.254zm.6 0-.635 2.254h.171l.635-2.254z"/><path d="M66.525 46.185h-1.492v.165h1.492zm-.13.7h-1.492v.165h1.492zm-2.58-1.34-.635 2.254h.171l.635-2.254zm.6 0-.635 2.254h.171l.635-2.254z"/><path d="M64.735 46.185h-1.492v.165h1.492zm-.12.7h-1.492v.165h1.492z"/><path fill="#ffce33" d="m85.835 50.095-.025.371.089.147.17-.03-.05-.113.02-.388c.002-.082.005-.314.005-.425 0-.346-.044-.778-.565-.778-.505 0-.876.413-.876 1.172 0 .762.241 1.21.749 1.21.441 0 .597-.261.597-.261l-.114-.153-.07.003c-.057.096-.064.191-.369.191-.38 0-.552-.45-.552-1.067 0-.606.267-.892.603-.892.394 0 .4.305.4.552 0 .124-.01.372-.012.46z"/><path fill="#ffce33" d="m85.865 50.285.089-.638c-.178-.016-.27-.026-.35-.026a.45.45 0 0 0-.444.46c0 .223.172.404.432.404.27 0 .273-.2.273-.2"/><path fill="#000" d="M85.385 50.075c0-.187.08-.298.248-.298.073 0 .235.022.235.022l-.026.362s-.028.158-.228.158c-.13 0-.229-.066-.229-.244"/><path fill="#ffce33" d="m84.055 50.095-.025.371.089.147.17-.03-.05-.113.02-.388c.002-.082.005-.314.005-.425 0-.346-.044-.778-.565-.778-.505 0-.876.413-.876 1.172 0 .762.241 1.21.749 1.21.441 0 .597-.261.597-.261l-.114-.153-.07.003c-.057.096-.064.191-.369.191-.38 0-.552-.45-.552-1.067 0-.606.267-.892.603-.892.394 0 .4.305.4.552 0 .124-.01.372-.012.46z"/><path fill="#ffce33" d="m84.085 50.285.089-.638c-.178-.016-.27-.026-.35-.026a.45.45 0 0 0-.444.46c0 .223.172.404.432.404.27 0 .273-.2.273-.2"/><path fill="#000" d="M83.605 50.075c0-.187.08-.298.248-.298.073 0 .235.022.235.022l-.026.362s-.028.158-.228.158c-.13 0-.229-.066-.229-.244"/><path fill="#ffce33" d="m82.275 50.095-.025.371.089.147.17-.03-.05-.113.02-.388c.002-.082.005-.314.005-.425 0-.346-.044-.778-.565-.778-.505 0-.876.413-.876 1.172 0 .762.241 1.21.75 1.21.44 0 .596-.261.596-.261l-.114-.153-.07.003c-.057.096-.064.191-.368.191-.381 0-.553-.45-.553-1.067 0-.606.267-.892.603-.892.394 0 .4.305.4.552 0 .124-.01.372-.012.46z"/><path fill="#ffce33" d="m82.295 50.285.089-.638c-.178-.016-.27-.026-.35-.026a.45.45 0 0 0-.444.46c0 .223.172.404.432.404.27 0 .273-.2.273-.2"/><path fill="#000" d="M81.825 50.075c0-.187.08-.298.248-.298.073 0 .235.022.235.022l-.026.362s-.028.158-.228.158c-.13 0-.229-.066-.229-.244"/><path fill="#ffce33" d="m80.645 48.935-1.422 2 .127.095 1.422-2zm-1.43.4c0 .235.178.429.406.429s.41-.194.41-.429-.181-.435-.41-.435-.406.2-.406.435"/><path fill="#000" d="M79.405 49.335c0-.159.064-.292.222-.292s.22.133.22.292-.061.298-.22.298c-.158 0-.222-.14-.222-.298"/><path fill="#ffce33" d="M79.965 50.645c0 .235.178.429.406.429s.41-.194.41-.429-.181-.435-.41-.435-.406.2-.406.435"/><path fill="#000" d="M80.155 50.635c0-.159.064-.292.222-.292s.22.133.22.292-.061.298-.22.298c-.158 0-.222-.14-.222-.298"/><path fill="#ffce33" d="m78.705 50.095-.025.371.088.147.172-.03-.05-.113.018-.388c.003-.082.006-.314.006-.425 0-.346-.044-.778-.565-.778-.505 0-.876.413-.876 1.172 0 .762.241 1.21.749 1.21.441 0 .597-.261.597-.261l-.114-.153-.07.003c-.057.096-.064.191-.369.191-.38 0-.552-.45-.552-1.067 0-.606.267-.892.603-.892.394 0 .4.305.4.552 0 .124-.01.372-.012.46z"/><path fill="#ffce33" d="m78.725 50.285.089-.638c-.178-.016-.27-.026-.35-.026a.45.45 0 0 0-.444.46c0 .223.172.404.432.404.27 0 .273-.2.273-.2"/><path fill="#000" d="M78.255 50.085c0-.187.08-.298.248-.298.073 0 .235.022.235.022l-.026.362s-.028.158-.228.158c-.13 0-.229-.066-.229-.244"/><path fill="#ffce33" d="m76.915 50.095-.025.371.089.147.17-.03-.05-.113.02-.388c.002-.082.005-.314.005-.425 0-.346-.044-.778-.565-.778-.505 0-.876.413-.876 1.172 0 .762.241 1.21.749 1.21.441 0 .597-.261.597-.261l-.114-.153-.07.003c-.057.096-.064.191-.369.191-.38 0-.552-.45-.552-1.067 0-.606.267-.892.603-.892.394 0 .4.305.4.552 0 .124-.01.372-.012.46z"/><path fill="#ffce33" d="m76.945 50.285.089-.638c-.178-.016-.27-.026-.35-.026a.45.45 0 0 0-.444.46c0 .223.172.404.432.404.27 0 .273-.2.273-.2"/><path fill="#000" d="M76.465 50.085c0-.187.08-.298.248-.298.073 0 .235.022.235.022l-.026.362s-.028.158-.228.158c-.13 0-.229-.066-.229-.244"/><path fill="#ffce33" d="m75.135 50.095-.025.371.089.147.17-.03-.05-.113.02-.388c.002-.082.005-.314.005-.425 0-.346-.044-.778-.565-.778-.505 0-.876.413-.876 1.172 0 .762.241 1.21.75 1.21.44 0 .596-.261.596-.261l-.114-.153-.07.003c-.057.096-.064.191-.368.191-.381 0-.553-.45-.553-1.067 0-.606.267-.892.603-.892.394 0 .4.305.4.552 0 .124-.01.372-.012.46z"/><path fill="#ffce33" d="m75.155 50.285.089-.638c-.178-.016-.27-.026-.35-.026a.45.45 0 0 0-.444.46c0 .223.172.404.432.404.27 0 .273-.2.273-.2"/><path fill="#000" d="M74.685 50.085c0-.187.08-.298.248-.298.073 0 .235.022.235.022l-.026.362s-.028.158-.228.158c-.13 0-.229-.066-.229-.244"/><path fill="#ffce33" d="m73.345 50.095-.025.371.089.147.17-.03-.05-.113.02-.388c.002-.082.005-.314.005-.425 0-.346-.044-.778-.565-.778-.505 0-.876.413-.876 1.172 0 .762.241 1.21.75 1.21.44 0 .596-.261.596-.261l-.114-.153-.07.003c-.057.096-.064.191-.369.191-.38 0-.552-.45-.552-1.067 0-.606.267-.892.603-.892.394 0 .4.305.4.552 0 .124-.01.372-.012.46z"/><path fill="#ffce33" d="m73.375 50.285.089-.638c-.178-.016-.27-.026-.35-.026a.45.45 0 0 0-.444.46c0 .223.172.404.432.404.27 0 .273-.2.273-.2"/><path fill="#000" d="M72.895 50.085c0-.187.08-.298.248-.298.073 0 .235.022.235.022l-.026.362s-.028.158-.228.158c-.13 0-.229-.066-.229-.244"/><path fill="#ffce33" d="m71.565 50.095-.025.371.088.147.172-.03-.05-.113.018-.388c.003-.082.006-.314.006-.425 0-.346-.044-.778-.565-.778-.505 0-.876.413-.876 1.172 0 .762.241 1.21.749 1.21.441 0 .597-.261.597-.261l-.114-.153-.07.003c-.057.096-.064.191-.369.191-.38 0-.552-.45-.552-1.067 0-.606.267-.892.603-.892.394 0 .4.305.4.552 0 .124-.01.372-.012.46z"/><path fill="#ffce33" d="m71.595 50.285.089-.638c-.178-.016-.27-.026-.35-.026a.45.45 0 0 0-.444.46c0 .223.172.404.432.404.27 0 .273-.2.273-.2"/><path fill="#000" d="M71.115 50.085c0-.187.08-.298.248-.298.073 0 .235.022.235.022l-.026.362s-.028.158-.228.158c-.13 0-.229-.066-.229-.244"/><path d="m69.125 48.845.083.476-.451-.235-.102.302.489.08-.368.368.26.177.248-.435.241.435.26-.177-.362-.369.483-.08-.102-.3-.444.234.082-.476zm-1.74 0-.635 2.254h.171l.635-2.254zm.6 0-.635 2.254h.171l.635-2.254z"/><path d="M68.305 49.485h-1.492v.165h1.492zm-.12.69h-1.492v.165h1.492zm-2.59-1.33-.635 2.254h.171l.635-2.254zm.6 0-.635 2.254h.171l.635-2.254z"/><path d="M66.525 49.485h-1.492v.165h1.492zm-.13.69h-1.492v.165h1.492zm-2.58-1.33-.635 2.254h.171l.635-2.254zm.6 0-.635 2.254h.171l.635-2.254z"/><path d="M64.735 49.485h-1.492v.165h1.492zm-.12.69h-1.492v.165h1.492z"/><path fill="#ffce33" d="M49.448 50.905c0 .111.092.206.203.206a.216.216 0 0 0 .213-.206c0-.111-.102-.21-.213-.21s-.203.099-.203.21"/><path d="M77.995 54.205c0 .111.092.206.203.206a.216.216 0 0 0 .213-.206.22.22 0 0 0-.213-.21.21.21 0 0 0-.203.21m-1.69-1.43v1.492h.229v-1.492z"/><path d="M77.165 53.405h-1.492v.229h1.492zm-2.64-.63v1.492h.229v-1.492z"/><path d="M75.385 53.405h-1.492v.229h1.492zm-2.65-1.27-.635 2.254h.171l.635-2.254zm.6 0-.635 2.254h.171l.635-2.254z"/><path d="M73.665 52.775h-1.492v.165h1.492zm-.13.7h-1.492v.165h1.492z"/><path fill="#ffce33" d="m71.565 53.395-.025.371.088.147.172-.03-.05-.113.018-.388c.003-.082.006-.314.006-.425 0-.346-.044-.778-.565-.778-.505 0-.876.413-.876 1.172 0 .762.241 1.21.749 1.21.441 0 .597-.261.597-.261l-.114-.153-.07.003c-.057.096-.064.191-.369.191-.38 0-.552-.45-.552-1.067 0-.606.267-.892.603-.892.394 0 .4.305.4.552 0 .124-.01.372-.012.46z"/><path fill="#ffce33" d="m71.595 53.585.089-.638c-.178-.016-.27-.026-.35-.026a.45.45 0 0 0-.444.46c0 .223.172.404.432.404.27 0 .273-.2.273-.2"/><path fill="#000" d="M71.115 53.375c0-.187.08-.298.248-.298.073 0 .235.022.235.022l-.026.362s-.028.158-.228.158c-.13 0-.229-.066-.229-.244"/><path fill="#ffce33" d="m69.785 53.395-.025.371.088.147.172-.03-.05-.113.018-.388c.003-.082.006-.314.006-.425 0-.346-.044-.778-.565-.778-.505 0-.876.413-.876 1.172 0 .762.241 1.21.75 1.21.44 0 .596-.261.596-.261l-.114-.153-.07.003c-.057.096-.064.191-.369.191-.38 0-.552-.45-.552-1.067 0-.606.267-.892.603-.892.394 0 .4.305.4.552 0 .124-.01.372-.012.46z"/><path fill="#ffce33" d="m69.805 53.585.089-.638c-.178-.016-.27-.026-.35-.026a.45.45 0 0 0-.444.46c0 .223.172.404.432.404.27 0 .273-.2.273-.2"/><path fill="#000" d="M69.325 53.375c0-.187.08-.298.248-.298.073 0 .235.022.235.022l-.026.362s-.028.158-.228.158c-.13 0-.229-.066-.229-.244"/><path fill="#ffce33" d="m67.995 53.395-.025.371.089.147.17-.03-.05-.113.02-.388c.002-.082.005-.314.005-.425 0-.346-.044-.778-.565-.778-.505 0-.876.413-.876 1.172 0 .762.241 1.21.75 1.21.44 0 .596-.261.596-.261l-.114-.153-.07.003c-.057.096-.064.191-.369.191-.38 0-.552-.45-.552-1.067 0-.606.267-.892.603-.892.394 0 .4.305.4.552 0 .124-.01.372-.012.46z"/><path fill="#ffce33" d="m68.025 53.585.089-.638c-.178-.016-.27-.026-.35-.026a.45.45 0 0 0-.444.46c0 .223.172.404.432.404.27 0 .273-.2.273-.2"/><path fill="#000" d="M67.545 53.375c0-.187.08-.298.248-.298.073 0 .235.022.235.022l-.026.362s-.028.158-.228.158c-.13 0-.229-.066-.229-.244"/><path d="m65.595 52.135-.635 2.254h.171l.635-2.254zm.6 0-.635 2.254h.171l.635-2.254z"/><path d="M66.525 52.775h-1.492v.165h1.492zm-.13.7h-1.492v.165h1.492zm-2.58-1.34-.635 2.254h.171l.635-2.254zm.6 0-.635 2.254h.171l.635-2.254z"/><path d="M64.735 52.775h-1.492v.165h1.492zm-.12.7h-1.492v.165h1.492zm-2.8-.05-.025.232.349-.016.336.016.026-.232-.362.016z"/><path fill="#ffce33" d="M45.879 54.205c0 .111.092.206.203.206a.216.216 0 0 0 .213-.206c0-.111-.102-.21-.213-.21s-.203.099-.203.21"/><path d="M77.165 56.385h-1.492v.229h1.492zm0 .64h-1.492v.229h1.492zm-2.64-.95v1.492h.229v-1.492z"/><path d="M75.385 56.705h-1.492v.229h1.492zm-2.65-.63v1.492h.229v-1.492z"/><path d="M73.595 56.705h-1.492v.229h1.492zm-2.64-.63v1.492h.229v-1.492z"/><path d="M71.815 56.705h-1.492v.229h1.492zm-2.65-1.28-.635 2.254h.171l.635-2.254zm.6 0-.635 2.254h.171l.635-2.254z"/><path d="M70.095 56.065h-1.492v.165h1.492zm-.13.7h-1.492v.165h1.492z"/><path fill="#ffce33" d="m67.995 56.685-.025.371.089.147.17-.03-.05-.113.02-.388c.002-.082.005-.314.005-.425 0-.346-.044-.778-.565-.778-.505 0-.876.413-.876 1.172 0 .762.241 1.21.75 1.21.44 0 .596-.261.596-.261l-.114-.153-.07.003c-.057.096-.064.191-.369.191-.38 0-.552-.45-.552-1.067 0-.606.267-.892.603-.892.394 0 .4.305.4.552 0 .124-.01.372-.012.46z"/><path fill="#ffce33" d="m68.025 56.875.089-.638c-.178-.016-.27-.026-.35-.026a.45.45 0 0 0-.444.46c0 .223.172.404.432.404.27 0 .273-.2.273-.2"/><path fill="#000" d="M67.545 56.665c0-.187.08-.298.248-.298.073 0 .235.022.235.022l-.026.362s-.028.158-.228.158c-.13 0-.229-.066-.229-.244"/><path fill="#ffce33" d="m66.215 56.685-.025.371.089.147.17-.03-.05-.113.02-.388c.002-.082.005-.314.005-.425 0-.346-.044-.778-.565-.778-.505 0-.876.413-.876 1.172 0 .762.241 1.21.749 1.21.441 0 .597-.261.597-.261l-.114-.153-.07.003c-.057.096-.064.191-.369.191-.38 0-.552-.45-.552-1.067 0-.606.267-.892.603-.892.394 0 .4.305.4.552 0 .124-.01.372-.012.46z"/><path fill="#ffce33" d="m66.235 56.875.089-.638c-.178-.016-.27-.026-.35-.026a.45.45 0 0 0-.444.46c0 .223.172.404.432.404.27 0 .273-.2.273-.2"/><path fill="#000" d="M65.765 56.665c0-.187.08-.298.248-.298.073 0 .235.022.235.022l-.026.362s-.028.158-.228.158c-.13 0-.229-.066-.229-.244"/><path fill="#ffce33" d="m64.425 56.685-.025.371.088.147.172-.03-.05-.113.018-.388c.003-.082.006-.314.006-.425 0-.346-.044-.778-.565-.778-.505 0-.876.413-.876 1.172 0 .762.241 1.21.749 1.21.441 0 .597-.261.597-.261l-.114-.153-.07.003c-.057.096-.064.191-.369.191-.38 0-.552-.45-.552-1.067 0-.606.267-.892.603-.892.394 0 .4.305.4.552 0 .124-.01.372-.012.46z"/><path fill="#ffce33" d="m64.455 56.875.089-.638c-.178-.016-.27-.026-.35-.026a.45.45 0 0 0-.444.46c0 .223.172.404.432.404.27 0 .273-.2.273-.2"/><path fill="#000" d="M63.975 56.665c0-.187.08-.298.248-.298.073 0 .235.022.235.022l-.026.362s-.028.158-.228.158c-.13 0-.229-.066-.229-.244"/><path fill="#ffce33" d="M61.935 57.495c0 .111.092.206.203.206a.216.216 0 0 0 .213-.206.22.22 0 0 0-.213-.21.21.21 0 0 0-.203.21m-16.056 0c0 .111.092.206.203.206a.216.216 0 0 0 .213-.206c0-.111-.102-.21-.213-.21s-.203.099-.203.21m-1.784 0c0 .111.092.206.203.206a.216.216 0 0 0 .213-.206c0-.111-.102-.21-.213-.21s-.203.099-.203.21"/><path d="m76.085 60.005-.025.232.349-.016.336.016.026-.232-.362.016zm-.7-.33h-1.492v.229h1.492zm0 .64h-1.492v.229h1.492zm-2.65-.95v1.492h.229v-1.492z"/><path d="M73.595 59.995h-1.492v.229h1.492zm-2.64-.63v1.492h.229v-1.492z"/><path d="M71.815 59.995h-1.492v.229h1.492zm-2.65-.63v1.492h.229v-1.492z"/><path d="M70.025 59.995h-1.492v.229h1.492z"/><g fill="#ffce33"><path d="m67.345 58.725.083.476-.451-.235-.102.302.49.08-.37.368.261.177.248-.435.241.435.26-.177-.362-.369.483-.08-.102-.3-.444.234.082-.476zm-1.79 0 .083.476-.451-.235-.102.302.489.08-.368.368.26.177.248-.435.241.435.26-.177-.362-.369.483-.08-.102-.3-.444.234.082-.476zm-1.13 1.25-.025.371.088.147.172-.03-.05-.113.018-.388c.003-.082.006-.314.006-.425 0-.346-.044-.778-.565-.778-.505 0-.876.413-.876 1.172 0 .762.241 1.21.749 1.21.441 0 .597-.261.597-.261l-.114-.153-.07.003c-.057.096-.064.191-.369.191-.38 0-.552-.45-.552-1.067 0-.606.267-.892.603-.892.394 0 .4.305.4.552 0 .124-.01.372-.012.46z"/><path d="m64.455 60.175.089-.638c-.178-.016-.27-.026-.35-.026a.45.45 0 0 0-.444.46c0 .223.172.404.432.404.27 0 .273-.2.273-.2"/></g><path fill="#000" d="M63.975 59.965c0-.187.08-.298.248-.298.073 0 .235.022.235.022l-.026.362s-.028.158-.228.158c-.13 0-.229-.066-.229-.244"/><path fill="#ffce33" d="m62.645 59.975-.025.371.089.147.17-.03-.05-.113.02-.388c.002-.082.005-.314.005-.425 0-.346-.044-.778-.565-.778-.505 0-.876.413-.876 1.172 0 .762.241 1.21.75 1.21.44 0 .596-.261.596-.261l-.114-.153-.07.003c-.057.096-.064.191-.369.191-.38 0-.552-.45-.552-1.067 0-.606.267-.892.603-.892.394 0 .4.305.4.552 0 .124-.01.372-.012.46z"/><path fill="#ffce33" d="m62.665 60.175.089-.638c-.178-.016-.27-.026-.35-.026a.45.45 0 0 0-.444.46c0 .223.172.404.432.404.27 0 .273-.2.273-.2"/><path fill="#000" d="M62.195 59.965c0-.187.08-.298.248-.298.073 0 .235.022.235.022l-.026.362s-.028.158-.228.158c-.13 0-.229-.066-.229-.244"/><path fill="#ffce33" d="m60.855 59.975-.025.371.089.147.171-.03-.05-.113.018-.388c.003-.082.006-.314.006-.425 0-.346-.044-.778-.565-.778-.505 0-.876.413-.876 1.172 0 .762.241 1.21.75 1.21.44 0 .596-.261.596-.261l-.114-.153-.07.003c-.057.096-.064.191-.368.191-.381 0-.553-.45-.553-1.067 0-.606.267-.892.603-.892.394 0 .4.305.4.552 0 .124-.01.372-.012.46z"/><path fill="#ffce33" d="m60.885 60.175.089-.638c-.178-.016-.27-.026-.35-.026a.45.45 0 0 0-.444.46c0 .223.172.404.432.404.27 0 .273-.2.273-.2"/><path fill="#000" d="M60.405 59.965c0-.187.08-.298.248-.298.073 0 .235.022.235.022l-.026.362s-.028.158-.228.158c-.13 0-.229-.066-.229-.244"/><g fill="#ffce33"><path d="M58.37 60.795c0 .111.092.206.203.206a.216.216 0 0 0 .213-.206c0-.111-.102-.21-.213-.21s-.203.099-.203.21m0-1.12c0 .111.092.206.203.206a.216.216 0 0 0 .213-.206c0-.111-.102-.21-.213-.21s-.203.099-.203.21m-13.57.3-.025.371.089.147.171-.03-.05-.113.018-.388c.003-.082.006-.314.006-.425 0-.346-.044-.778-.565-.778-.504 0-.876.413-.876 1.172 0 .762.241 1.21.75 1.21.44 0 .596-.261.596-.261l-.114-.153-.07.003c-.057.096-.063.191-.368.191-.381 0-.553-.45-.553-1.067 0-.606.267-.892.604-.892.393 0 .4.305.4.552 0 .124-.01.372-.013.46z"/><path d="m44.825 60.175.089-.638c-.178-.016-.27-.026-.35-.026a.45.45 0 0 0-.444.46c0 .223.172.404.432.404.27 0 .273-.2.273-.2"/></g><path fill="#000" d="M44.349 59.965c0-.187.08-.298.248-.298.073 0 .235.022.235.022l-.026.362s-.028.158-.228.158c-.13 0-.229-.066-.229-.244"/><path d="M72.645 64.085c0 .111.092.206.203.206a.216.216 0 0 0 .213-.206.22.22 0 0 0-.213-.21.21.21 0 0 0-.203.21m-3.57 0c0 .111.092.206.203.206a.216.216 0 0 0 .213-.206.22.22 0 0 0-.213-.21.21.21 0 0 0-.203.21"/><g fill="#ffce33"><path d="m60.205 62.015.083.476-.451-.235-.102.302.49.08-.37.368.261.177.248-.435.241.435.26-.177-.361-.369.482-.08-.101-.3-.445.234.083-.476zm-1.131 1.26-.025.371.089.147.171-.03-.05-.113.018-.388c.003-.082.006-.314.006-.425 0-.346-.044-.778-.565-.778-.504 0-.876.413-.876 1.172 0 .762.241 1.21.75 1.21.44 0 .596-.261.596-.261l-.114-.153-.07.003c-.057.096-.063.191-.368.191-.381 0-.553-.45-.553-1.067 0-.606.267-.892.604-.892.393 0 .4.305.4.552 0 .124-.01.372-.013.46z"/><path d="m59.1 63.465.089-.638c-.178-.016-.27-.026-.35-.026a.45.45 0 0 0-.444.46c0 .223.172.404.432.404.27 0 .273-.2.273-.2"/></g><path fill="#000" d="M58.624 63.255c0-.187.08-.298.248-.298.073 0 .235.022.235.022l-.026.362s-.028.158-.228.158c-.13 0-.229-.066-.229-.244"/><path fill="#ffce33" d="m57.29 63.275-.025.371.089.147.171-.03-.05-.113.018-.388c.003-.082.007-.314.007-.425 0-.346-.045-.778-.566-.778-.504 0-.876.413-.876 1.172 0 .762.241 1.21.75 1.21.44 0 .596-.261.596-.261l-.114-.153-.07.003c-.057.096-.063.191-.368.191-.381 0-.553-.45-.553-1.067 0-.606.267-.892.604-.892.393 0 .4.305.4.552 0 .124-.01.372-.013.46z"/><path fill="#ffce33" d="m57.316 63.465.089-.638c-.178-.016-.27-.026-.35-.026a.45.45 0 0 0-.444.46c0 .223.172.404.432.404.27 0 .273-.2.273-.2"/><path fill="#000" d="M56.839 63.255c0-.187.08-.298.248-.298.073 0 .235.022.235.022l-.026.362s-.028.158-.228.158c-.13 0-.229-.066-.229-.244"/><g fill="#ffce33"><path d="m54.677 63.305-.025.232.349-.016.336.016.026-.232-.362.016zm-11.662-.03-.025.371.089.147.171-.03-.05-.113.018-.388c.003-.082.006-.314.006-.425 0-.346-.044-.778-.565-.778-.504 0-.876.413-.876 1.172 0 .762.241 1.21.75 1.21.44 0 .596-.261.596-.261l-.114-.153-.07.003c-.057.096-.063.191-.368.191-.381 0-.553-.45-.553-1.067 0-.606.267-.892.604-.892.393 0 .4.305.4.552 0 .124-.01.372-.013.46z"/><path d="m43.041 63.465.089-.638c-.178-.016-.27-.026-.35-.026a.45.45 0 0 0-.444.46c0 .223.172.404.432.404.27 0 .273-.2.273-.2"/></g><path fill="#000" d="M42.564 63.255c0-.187.08-.298.248-.298.073 0 .235.022.235.022l-.026.362s-.028.158-.228.158c-.13 0-.229-.066-.229-.244"/><path d="M72.645 67.375c0 .111.092.206.203.206a.216.216 0 0 0 .213-.206.22.22 0 0 0-.213-.21.21.21 0 0 0-.203.21m0-1.11c0 .111.092.206.203.206a.216.216 0 0 0 .213-.206.22.22 0 0 0-.213-.21.21.21 0 0 0-.203.21m-1.78 1.11c0 .111.092.206.203.206a.216.216 0 0 0 .213-.206.22.22 0 0 0-.213-.21.21.21 0 0 0-.203.21m-1.7-1.42v1.492h.229v-1.492z"/><path d="M70.025 66.585h-1.492v.229h1.492zm-2.64-.63v1.492h.229v-1.492z"/><path d="M68.245 66.585h-1.492v.229h1.492zm-2.74.79c0 .111.092.206.203.206a.216.216 0 0 0 .213-.206.22.22 0 0 0-.213-.21.21.21 0 0 0-.203.21m-3.52-2.06.083.476-.451-.235-.102.302.489.08-.368.368.26.177.248-.435.241.435.26-.177-.362-.369.483-.08-.102-.3-.444.234.082-.476z"/><g fill="#ffce33"><path d="M56.585 67.375c0 .111.092.206.203.206a.216.216 0 0 0 .213-.206c0-.111-.102-.21-.213-.21s-.203.099-.203.21m0-1.11c0 .111.092.206.203.206a.216.216 0 0 0 .213-.206c0-.111-.102-.21-.213-.21s-.203.099-.203.21m-1.079.3-.025.371.089.147.171-.03-.05-.113.018-.388c.003-.082.006-.314.006-.425 0-.346-.044-.778-.565-.778-.504 0-.876.413-.876 1.172 0 .762.241 1.21.75 1.21.44 0 .596-.261.596-.261l-.114-.153-.07.003c-.057.096-.063.191-.368.191-.381 0-.553-.45-.553-1.067 0-.606.267-.892.604-.892.393 0 .4.305.4.552 0 .124-.01.372-.013.46z"/><path d="m55.531 66.765.089-.638c-.178-.016-.27-.026-.35-.026a.45.45 0 0 0-.444.46c0 .223.172.404.432.404.27 0 .273-.2.273-.2"/></g><path fill="#000" d="M55.055 66.555c0-.187.08-.298.248-.298.073 0 .235.022.235.022l-.026.362s-.028.158-.228.158c-.13 0-.229-.066-.229-.244"/><path fill="#ffce33" d="m53.721 66.565-.025.371.089.147.171-.03-.05-.113.018-.388c.003-.082.007-.314.007-.425 0-.346-.045-.778-.566-.778-.504 0-.876.413-.876 1.172 0 .762.241 1.21.75 1.21.44 0 .596-.261.596-.261l-.114-.153-.07.003c-.057.096-.063.191-.368.191-.381 0-.553-.45-.553-1.067 0-.606.267-.892.604-.892.393 0 .4.305.4.552 0 .124-.01.372-.013.46z"/><path fill="#ffce33" d="m53.747 66.765.089-.638c-.178-.016-.27-.026-.35-.026a.45.45 0 0 0-.444.46c0 .223.172.404.432.404.27 0 .273-.2.273-.2"/><path fill="#000" d="M53.271 66.555c0-.187.08-.298.248-.298.073 0 .235.022.235.022l-.026.362s-.028.158-.228.158c-.13 0-.229-.066-.229-.244"/><path fill="#ffce33" d="m51.937 66.565-.025.371.089.147.171-.03-.05-.113.018-.388c.003-.082.007-.314.007-.425 0-.346-.045-.778-.566-.778-.504 0-.876.413-.876 1.172 0 .762.241 1.21.75 1.21.44 0 .596-.261.596-.261l-.114-.153-.07.003c-.057.096-.063.191-.368.191-.381 0-.553-.45-.553-1.067 0-.606.267-.892.604-.892.393 0 .4.305.4.552 0 .124-.01.372-.013.46z"/><path fill="#ffce33" d="m51.962 66.765.089-.638c-.178-.016-.27-.026-.35-.026a.45.45 0 0 0-.444.46c0 .223.172.404.432.404.27 0 .273-.2.273-.2"/><path fill="#000" d="M51.486 66.555c0-.187.08-.298.248-.298.073 0 .235.022.235.022l-.026.362s-.028.158-.228.158c-.13 0-.229-.066-.229-.244"/><path fill="#ffce33" d="m43.015 66.565-.025.371.089.147.171-.03-.05-.113.018-.388c.003-.082.006-.314.006-.425 0-.346-.044-.778-.565-.778-.504 0-.876.413-.876 1.172 0 .762.241 1.21.75 1.21.44 0 .596-.261.596-.261l-.114-.153-.07.003c-.057.096-.063.191-.368.191-.381 0-.553-.45-.553-1.067 0-.606.267-.892.604-.892.393 0 .4.305.4.552 0 .124-.01.372-.013.46z"/><path fill="#ffce33" d="m43.041 66.765.089-.638c-.178-.016-.27-.026-.35-.026a.45.45 0 0 0-.444.46c0 .223.172.404.432.404.27 0 .273-.2.273-.2"/><path fill="#000" d="M42.564 66.555c0-.187.08-.298.248-.298.073 0 .235.022.235.022l-.026.362s-.028.158-.228.158c-.13 0-.229-.066-.229-.244"/><path d="m74.305 69.895-.025.232.349-.016.336.016.026-.232-.362.016zm-1.66.78c0 .111.092.206.203.206a.216.216 0 0 0 .213-.206.22.22 0 0 0-.213-.21.21.21 0 0 0-.203.21m-1.78 0c0 .111.092.206.203.206a.216.216 0 0 0 .213-.206.22.22 0 0 0-.213-.21.21.21 0 0 0-.203.21m0-1.11c0 .111.092.206.203.206a.216.216 0 0 0 .213-.206.22.22 0 0 0-.213-.21.21.21 0 0 0-.203.21m-.84 0h-1.492v.229h1.492zm0 .63h-1.492v.229h1.492zm-2.64-.95v1.492h.229v-1.492z"/><path d="M68.245 69.875h-1.492v.229h1.492zm-2.65-.63v1.492h.229v-1.492z"/><path d="M66.455 69.875h-1.492v.229h1.492z"/><g fill="#ffce33"><path d="M53.017 70.675c0 .111.092.206.203.206a.216.216 0 0 0 .213-.206c0-.111-.102-.21-.213-.21s-.203.099-.203.21m-1.08-.81-.025.371.089.147.171-.03-.05-.113.018-.388c.003-.082.007-.314.007-.425 0-.346-.045-.778-.566-.778-.504 0-.876.413-.876 1.172 0 .762.241 1.21.75 1.21.44 0 .596-.261.596-.261l-.114-.153-.07.003c-.057.096-.063.191-.368.191-.381 0-.553-.45-.553-1.067 0-.606.267-.892.604-.892.393 0 .4.305.4.552 0 .124-.01.372-.013.46z"/><path d="m51.962 70.055.089-.638c-.178-.016-.27-.026-.35-.026a.45.45 0 0 0-.444.46c0 .223.172.404.432.404.27 0 .273-.2.273-.2"/></g><path fill="#000" d="M51.486 69.845c0-.187.08-.298.248-.298.073 0 .235.022.235.022l-.026.362s-.028.158-.228.158c-.13 0-.229-.066-.229-.244"/><path fill="#ffce33" d="m50.153 69.865-.025.371.089.147.171-.03-.05-.113.018-.388c.003-.082.007-.314.007-.425 0-.346-.045-.778-.566-.778-.504 0-.876.413-.876 1.172 0 .762.241 1.21.75 1.21.44 0 .596-.261.596-.261l-.114-.153-.07.003c-.057.096-.063.191-.368.191-.381 0-.553-.45-.553-1.067 0-.606.267-.892.604-.892.393 0 .4.305.4.552 0 .124-.01.372-.013.46z"/><path fill="#ffce33" d="m50.178 70.055.089-.638c-.178-.016-.27-.026-.35-.026a.45.45 0 0 0-.444.46c0 .223.172.404.432.404.27 0 .273-.2.273-.2"/><path fill="#000" d="M49.702 69.845c0-.187.08-.298.248-.298.073 0 .235.022.235.022l-.026.362s-.028.158-.228.158c-.13 0-.229-.066-.229-.244"/><path fill="#ffce33" d="m48.368 69.865-.025.371.088.147.172-.03-.05-.113.018-.388c.003-.082.007-.314.007-.425 0-.346-.045-.778-.566-.778-.504 0-.876.413-.876 1.172 0 .762.241 1.21.75 1.21.44 0 .596-.261.596-.261l-.114-.153-.07.003c-.057.096-.063.191-.368.191-.381 0-.553-.45-.553-1.067 0-.606.267-.892.604-.892.393 0 .4.305.4.552 0 .124-.01.372-.013.46z"/><path fill="#ffce33" d="m48.394 70.055.089-.638c-.178-.016-.27-.026-.35-.026a.45.45 0 0 0-.444.46c0 .223.172.404.432.404.27 0 .273-.2.273-.2"/><path fill="#000" d="M47.918 69.845c0-.187.08-.298.248-.298.073 0 .235.022.235.022l-.026.362s-.028.158-.228.158c-.13 0-.229-.066-.229-.244"/><g fill="#ffce33"><path d="M45.879 70.675c0 .111.092.206.203.206a.216.216 0 0 0 .213-.206c0-.111-.102-.21-.213-.21s-.203.099-.203.21m-2.864-.81-.025.371.089.147.171-.03-.05-.113.018-.388c.003-.082.006-.314.006-.425 0-.346-.044-.778-.565-.778-.504 0-.876.413-.876 1.172 0 .762.241 1.21.75 1.21.44 0 .596-.261.596-.261l-.114-.153-.07.003c-.057.096-.063.191-.368.191-.381 0-.553-.45-.553-1.067 0-.606.267-.892.604-.892.393 0 .4.305.4.552 0 .124-.01.372-.013.46z"/><path d="m43.041 70.055.089-.638c-.178-.016-.27-.026-.35-.026a.45.45 0 0 0-.444.46c0 .223.172.404.432.404.27 0 .273-.2.273-.2"/></g><path fill="#000" d="M42.564 69.845c0-.187.08-.298.248-.298.073 0 .235.022.235.022l-.026.362s-.028.158-.228.158c-.13 0-.229-.066-.229-.244"/><path fill="#ffce33" d="M40.526 70.675c0 .111.092.206.203.206a.216.216 0 0 0 .213-.206c0-.111-.102-.21-.213-.21s-.203.099-.203.21"/><path d="M76.215 73.965c0 .111.092.206.203.206a.216.216 0 0 0 .213-.206.22.22 0 0 0-.213-.21.21.21 0 0 0-.203.21m0-1.11c0 .111.092.206.203.206a.216.216 0 0 0 .213-.206.22.22 0 0 0-.213-.21.21.21 0 0 0-.203.21m-1.79 1.11c0 .111.092.206.203.206a.216.216 0 0 0 .213-.206.22.22 0 0 0-.213-.21.21.21 0 0 0-.203.21m0-1.11c0 .111.092.206.203.206a.216.216 0 0 0 .213-.206.22.22 0 0 0-.213-.21.21.21 0 0 0-.203.21m-2.61 0h-1.492v.229h1.492zm0 .64h-1.492v.229h1.492zm-1.79-.64h-1.492v.229h1.492zm0 .64h-1.492v.229h1.492zm-1.78-.64h-1.492v.229h1.492zm0 .64h-1.492v.229h1.492zm-2.65-.95v1.492h.229v-1.492z"/><path d="M66.455 73.175h-1.492v.229h1.492zm-2.73.79c0 .111.092.206.203.206a.216.216 0 0 0 .213-.206.22.22 0 0 0-.213-.21.21.21 0 0 0-.203.21m-1.69-1.42v1.492h.229v-1.492z"/><path d="M62.895 73.175h-1.492v.229h1.492z"/><g fill="#ffce33"><path d="M47.664 73.965c0 .111.092.206.203.206a.216.216 0 0 0 .213-.206c0-.111-.102-.21-.213-.21s-.203.099-.203.21m0-1.11c0 .111.092.206.203.206a.216.216 0 0 0 .213-.206c0-.111-.102-.21-.213-.21s-.203.099-.203.21m-1.08.3-.025.371.089.147.171-.03-.05-.113.018-.388c.003-.082.007-.314.007-.425 0-.346-.045-.778-.566-.778-.504 0-.876.413-.876 1.172 0 .762.241 1.21.75 1.21.44 0 .596-.261.596-.261l-.114-.152-.07.003c-.057.095-.063.19-.368.19-.381 0-.553-.45-.553-1.067 0-.606.267-.892.604-.892.393 0 .4.305.4.552 0 .124-.01.372-.013.46z"/><path d="m46.609 73.345.089-.638c-.178-.016-.27-.026-.35-.026a.45.45 0 0 0-.444.46c0 .223.172.404.432.404.27 0 .273-.2.273-.2"/></g><path fill="#000" d="M46.133 73.135c0-.187.08-.298.248-.298.073 0 .235.022.235.022l-.026.362s-.028.158-.228.158c-.13 0-.229-.066-.229-.244"/><path fill="#ffce33" d="m44.8 73.155-.025.371.089.147.171-.03-.05-.113.018-.388c.003-.082.006-.314.006-.425 0-.346-.044-.778-.565-.778-.504 0-.876.413-.876 1.172 0 .762.241 1.21.75 1.21.44 0 .596-.261.596-.261l-.114-.152-.07.003c-.057.095-.063.19-.368.19-.381 0-.553-.45-.553-1.067 0-.606.267-.892.604-.892.393 0 .4.305.4.552 0 .124-.01.372-.013.46z"/><path fill="#ffce33" d="m44.825 73.345.089-.638c-.178-.016-.27-.026-.35-.026a.45.45 0 0 0-.444.46c0 .223.172.404.432.404.27 0 .273-.2.273-.2"/><path fill="#000" d="M44.349 73.135c0-.187.08-.298.248-.298.073 0 .235.022.235.022l-.026.362s-.028.158-.228.158c-.13 0-.229-.066-.229-.244"/><path fill="#ffce33" d="m43.015 73.155-.025.371.089.147.171-.03-.05-.113.018-.388c.003-.082.006-.314.006-.425 0-.346-.044-.778-.565-.778-.504 0-.876.413-.876 1.172 0 .762.241 1.21.75 1.21.44 0 .596-.261.596-.261l-.114-.152-.07.003c-.057.095-.063.19-.368.19-.381 0-.553-.45-.553-1.067 0-.606.267-.892.604-.892.393 0 .4.305.4.552 0 .124-.01.372-.013.46z"/><path fill="#ffce33" d="m43.041 73.345.089-.638c-.178-.016-.27-.026-.35-.026a.45.45 0 0 0-.444.46c0 .223.172.404.432.404.27 0 .273-.2.273-.2"/><path fill="#000" d="M42.564 73.135c0-.187.08-.298.248-.298.073 0 .235.022.235.022l-.026.362s-.028.158-.228.158c-.13 0-.229-.066-.229-.244"/><path d="M70.865 77.265c0 .111.092.206.203.206a.216.216 0 0 0 .213-.206.22.22 0 0 0-.213-.21.21.21 0 0 0-.203.21m0-1.11c0 .111.092.206.203.206a.216.216 0 0 0 .213-.206.22.22 0 0 0-.213-.21.21.21 0 0 0-.203.21m-.84 0h-1.492v.229h1.492zm0 .63h-1.492v.229h1.492zm-1.78-.63h-1.492v.229h1.492zm0 .63h-1.492v.229h1.492zm-2.74.48c0 .111.092.206.203.206a.216.216 0 0 0 .213-.206.22.22 0 0 0-.213-.21.21.21 0 0 0-.203.21m0-1.11c0 .111.092.206.203.206a.216.216 0 0 0 .213-.206.22.22 0 0 0-.213-.21.21.21 0 0 0-.203.21m-1.78 1.11c0 .111.092.206.203.206a.216.216 0 0 0 .213-.206.22.22 0 0 0-.213-.21.21.21 0 0 0-.203.21m1.78 3.29c0 .111.092.206.203.206a.216.216 0 0 0 .213-.206.22.22 0 0 0-.213-.21.21.21 0 0 0-.203.21m-.83-1.11h-1.492v.229h1.492zm0 .63h-1.492v.229h1.492zm-1.78-.63h-1.492v.229h1.492zm0 .63h-1.492v.229h1.492z"/></g><path d="M54.853 85.546q.506 0 1.03.105.529.1.797.21l.274.109.018.027q-.141.597-.187 1.212l-.282.01q-.301-.588-.702-.871-.397-.287-1.012-.287-.31 0-.61.141-.297.137-.575.424-.273.283-.442.802t-.168 1.19q0 1.175.505 1.89.506.716 1.276.716.67 0 1.122-.173.45-.173.961-.66l.223.318q-1.034 1.076-2.547 1.071-1.112 0-1.914-.537-.542-.365-.848-1.026-.3-.665-.3-1.422 0-.774.305-1.449.305-.679.852-1.107.889-.693 2.224-.693m5.009 5.2q0 .232.2.35t.711.12q.524 0 .861-.087.338-.091.588-.338.25-.25.356-.697.109-.451.109-1.148 0-.515-.027-.852-.028-.342-.15-.748-.12-.405-.338-.642-.219-.242-.633-.406-.41-.164-.998-.164-.684 0-.68.47zm-.657-5.077q.328 0 .843-.014.52-.013.848-.013 1.372 0 2.333.87.962.866.962 2.21 0 .661-.2 1.19-.201.529-.52.857-.315.323-.743.542-.424.219-.834.31-.41.087-.83.087-.419 0-.961-.01-.542-.009-.898-.009l-.793.028-.009-.028q.114-.756.114-1.868v-2.283q0-1.076-.114-1.869l.018-.027q.465.027.784.027m6.973-.073h.952q.962 2.584 1.828 4.339h.036l2.334-4.339h.83q.391 3.696.737 6.12-.14-.027-.679-.027-.588 0-.729.028-.241-2.83-.428-4.416h-.028q-1.485 2.707-2.224 4.388h-.597q-.783-2.2-1.772-4.38l-.028-.008q-.446 2.68-.515 4.416-.104-.028-.52-.028-.327 0-.432.028.806-3.564 1.235-6.12m9.283.866v2.101q.178.091.738.091.438 0 .72-.328.288-.333.288-1.003 0-.765-.256-1.016-.255-.255-.742-.255-.465 0-.607.096-.14.09-.14.314m-1.326 1.076q0-1.076-.11-1.869l.019-.027q.446.027.765.027.142 0 .839-.032.702-.032.811-.032 1.044 0 1.504.315.652.455.656 1.235 0 .82-.57 1.399-.569.579-1.745.579-.551 0-.843-.096v.784q0 1.062.114 1.868l-.018.028q-.429-.028-.748-.028l-.774.028-.01-.028q.115-.756.11-1.868z" aria-label="CDMP"/><path d="M87.05 62.168q-.396 0-.604.245t-.208.64q0 .266.182.553.182.286.5.468l.307.183q.193-.152.297-.256.11-.11.224-.338.12-.23.12-.495 0-.417-.203-.708-.198-.292-.615-.292m2.005.917q0 .49-.312.828-.308.333-.948.599l.63.375q.406.276.672.734t.266.906q0 .948-.803 1.485-.52.344-1.609.338-.896 0-1.573-.448t-.677-1.213q0-.578.365-1 .37-.427 1.109-.813l-.193-.109q-.948-.531-.953-1.458 0-.683.573-1.125.573-.443 1.51-.443.855 0 1.396.37.547.364.547.974m-2.083 4.843q.48 0 .755-.244.281-.25.281-.943 0-.458-.177-.76-.177-.308-.635-.605l-.458-.244q-.428.317-.568.698-.136.38-.136.859 0 .552.287.896t.65.343" aria-label="8"/></g></g></svg>