# Blender v3.1.2 OBJ File: 'Momiji.blend'
# www.blender.org
o Sock_Cylinder.003
v 0.000000 0.094013 0.145917
v 0.000000 0.482203 0.145917
v -0.062045 0.094013 0.134810
v -0.062045 0.482203 0.134810
v -0.114643 0.094013 0.103179
v -0.114643 0.482203 0.103179
v -0.149789 0.094013 0.055840
v -0.149789 0.482203 0.055840
v -0.162130 0.094013 0.000000
v -0.162130 0.482203 0.000000
v -0.149789 0.094013 -0.055840
v -0.149789 0.482203 -0.055840
v -0.114644 0.094013 -0.103179
v -0.114644 0.482203 -0.103179
v -0.062045 0.094013 -0.134810
v -0.062045 0.482203 -0.134810
v -0.000000 0.094013 -0.145917
v -0.000000 0.482203 -0.145917
v 0.062045 0.094013 -0.134810
v 0.062045 0.482203 -0.134810
v 0.114643 0.094013 -0.103179
v 0.114643 0.482203 -0.103179
v 0.149789 0.094013 -0.055840
v 0.149789 0.482203 -0.055840
v 0.162130 0.094013 -0.000000
v 0.162130 0.482203 -0.000000
v 0.149789 0.094013 0.055840
v 0.149789 0.482203 0.055840
v 0.114644 0.094013 0.103179
v 0.114644 0.482203 0.103179
v 0.062045 0.094013 0.134810
v 0.062045 0.482203 0.134810
v 0.000000 0.011954 0.140882
v -0.059903 0.011954 0.130158
v -0.110687 0.011954 0.099618
v -0.144620 0.011954 0.053913
v -0.156535 0.011954 0.000000
v -0.144620 0.011954 -0.053913
v -0.110687 0.011954 -0.099618
v -0.059904 0.011954 -0.130158
v -0.000000 0.011954 -0.140882
v 0.059903 0.011954 -0.130158
v 0.110687 0.011954 -0.099618
v 0.144620 0.011954 -0.053913
v 0.156535 0.011954 -0.000000
v 0.144620 0.011954 0.053913
v 0.110687 0.011954 0.099618
v 0.059904 0.011954 0.130158
v 0.000000 -0.076301 0.125746
v -0.053467 -0.076301 0.116174
v -0.098795 -0.076301 0.088916
v -0.129082 -0.076301 0.048121
v -0.139717 -0.076301 0.000000
v -0.129082 -0.076301 -0.048121
v -0.098795 -0.076301 -0.088916
v -0.053468 -0.076301 -0.116174
v -0.000000 -0.076301 -0.125746
v 0.053467 -0.076301 -0.116174
v 0.098795 -0.076301 -0.088916
v 0.129082 -0.076301 -0.048121
v 0.139717 -0.076301 -0.000000
v 0.129082 -0.076301 0.048121
v 0.098795 -0.076301 0.088916
v 0.053468 -0.076301 0.116174
v 0.000000 -0.137745 0.103175
v -0.043870 -0.137745 0.095321
v -0.081062 -0.137745 0.072956
v -0.105912 -0.137745 0.039483
v -0.114639 -0.137745 0.000000
v -0.105912 -0.137745 -0.039483
v -0.081062 -0.137745 -0.072956
v -0.043870 -0.137745 -0.095321
v -0.000000 -0.137745 -0.103175
v 0.043870 -0.137745 -0.095321
v 0.081062 -0.137745 -0.072956
v 0.105912 -0.137745 -0.039483
v 0.114639 -0.137745 -0.000000
v 0.105912 -0.137745 0.039483
v 0.081062 -0.137745 0.072955
v 0.043870 -0.137745 0.095321
v 0.000000 -0.164983 0.084707
v -0.036018 -0.164983 0.078259
v -0.066552 -0.164983 0.059897
v -0.086955 -0.164983 0.032416
v -0.094119 -0.164983 0.000000
v -0.086955 -0.164983 -0.032416
v -0.066552 -0.164983 -0.059897
v -0.036018 -0.164983 -0.078259
v -0.000000 -0.164983 -0.084707
v 0.036018 -0.164983 -0.078259
v 0.066552 -0.164983 -0.059897
v 0.086955 -0.164983 -0.032416
v 0.094119 -0.164983 -0.000000
v 0.086955 -0.164983 0.032416
v 0.066552 -0.164983 0.059897
v 0.036018 -0.164983 0.078259
v 0.000000 -0.195730 0.056341
v -0.023956 -0.195730 0.052052
v -0.044265 -0.195730 0.039839
v -0.057836 -0.195730 0.021561
v -0.062601 -0.195730 0.000000
v -0.057836 -0.195730 -0.021561
v -0.044265 -0.195730 -0.039839
v -0.023956 -0.195730 -0.052052
v -0.000000 -0.195730 -0.056341
v 0.023956 -0.195730 -0.052052
v 0.044265 -0.195730 -0.039839
v 0.057836 -0.195730 -0.021561
v 0.062601 -0.195730 -0.000000
v 0.057836 -0.195730 0.021561
v 0.044265 -0.195730 0.039839
v 0.023956 -0.195730 0.052052
v -0.000000 -0.214586 -0.000000
vt 1.000000 0.500000
vt 1.000000 0.819990
vt 0.937500 0.819990
vt 0.937500 0.500000
vt 0.875000 0.819990
vt 0.875000 0.500000
vt 0.812500 0.819990
vt 0.812500 0.500000
vt 0.750000 0.819990
vt 0.750000 0.500000
vt 0.687500 0.819990
vt 0.687500 0.500000
vt 0.625000 0.819990
vt 0.625000 0.500000
vt 0.562500 0.819990
vt 0.562500 0.500000
vt 0.500000 0.819990
vt 0.500000 0.500000
vt 0.437500 0.819990
vt 0.437500 0.500000
vt 0.375000 0.819990
vt 0.375000 0.500000
vt 0.312500 0.819990
vt 0.312500 0.500000
vt 0.250000 0.819990
vt 0.250000 0.500000
vt 0.187500 0.819990
vt 0.187500 0.500000
vt 0.125000 0.819990
vt 0.125000 0.500000
vt 0.062500 0.819990
vt 0.062500 0.500000
vt 0.000000 0.819990
vt 0.000000 0.500000
vt 0.750000 0.500000
vt 0.812500 0.500000
vt 0.437500 0.500000
vt 0.500000 0.500000
vt 0.125000 0.500000
vt 0.187500 0.500000
vt 0.875000 0.500000
vt 0.937500 0.500000
vt 0.562500 0.500000
vt 0.625000 0.500000
vt 0.250000 0.500000
vt 0.312500 0.500000
vt 0.687500 0.500000
vt 0.375000 0.500000
vt 0.062500 0.500000
vt 1.000000 0.500000
vt 0.000000 0.500000
vt 0.562500 0.500000
vt 0.625000 0.500000
vt 0.062500 0.500000
vt 0.125000 0.500000
vt 0.500000 0.500000
vt 0.937500 0.500000
vt 1.000000 0.500000
vt 0.000000 0.500000
vt 0.437500 0.500000
vt 0.875000 0.500000
vt 0.375000 0.500000
vt 0.812500 0.500000
vt 0.312500 0.500000
vt 0.750000 0.500000
vt 0.250000 0.500000
vt 0.687500 0.500000
vt 0.187500 0.500000
vt 0.250000 0.500000
vt 0.312500 0.500000
vt 0.687500 0.500000
vt 0.750000 0.500000
vt 0.187500 0.500000
vt 0.625000 0.500000
vt 0.125000 0.500000
vt 0.562500 0.500000
vt 0.062500 0.500000
vt 0.500000 0.500000
vt 0.937500 0.500000
vt 1.000000 0.500000
vt 0.000000 0.500000
vt 0.437500 0.500000
vt 0.875000 0.500000
vt 0.375000 0.500000
vt 0.812500 0.500000
vt 0.062500 0.500000
vt 0.125000 0.500000
vt 0.500000 0.500000
vt 0.562500 0.500000
vt 0.937500 0.500000
vt 1.000000 0.500000
vt 0.000000 0.500000
vt 0.437500 0.500000
vt 0.875000 0.500000
vt 0.375000 0.500000
vt 0.812500 0.500000
vt 0.312500 0.500000
vt 0.750000 0.500000
vt 0.250000 0.500000
vt 0.687500 0.500000
vt 0.187500 0.500000
vt 0.625000 0.500000
vt 0.687500 0.500000
vt 0.750000 0.500000
vt 0.187500 0.500000
vt 0.250000 0.500000
vt 0.625000 0.500000
vt 0.125000 0.500000
vt 0.562500 0.500000
vt 0.062500 0.500000
vt 0.500000 0.500000
vt 0.937500 0.500000
vt 1.000000 0.500000
vt 0.000000 0.500000
vt 0.437500 0.500000
vt 0.875000 0.500000
vt 0.375000 0.500000
vt 0.812500 0.500000
vt 0.312500 0.500000
vt 0.437500 0.500000
vt 0.875000 0.500000
vt 0.375000 0.500000
vt 0.812500 0.500000
vt 0.312500 0.500000
vt 0.750000 0.500000
vt 0.250000 0.500000
vt 0.687500 0.500000
vt 0.187500 0.500000
vt 0.625000 0.500000
vt 0.125000 0.500000
vt 0.562500 0.500000
vt 1.000000 0.500000
vt 0.062500 0.500000
vt 0.500000 0.500000
vt 0.937500 0.500000
vn 0.0000 -0.0305 0.9995
vn 0.0000 -0.0000 1.0000
vn -0.3516 -0.0000 0.9361
vn -0.3517 -0.0310 0.9356
vn -0.6719 -0.0000 0.7406
vn -0.6719 -0.0321 0.7400
vn -0.9098 -0.0000 0.4151
vn -0.9094 -0.0333 0.4146
vn -1.0000 -0.0000 0.0000
vn -0.9994 -0.0339 0.0000
vn -0.9098 0.0000 -0.4151
vn -0.9094 -0.0333 -0.4146
vn -0.6719 0.0000 -0.7406
vn -0.6719 -0.0321 -0.7400
vn -0.3516 0.0000 -0.9361
vn -0.3517 -0.0310 -0.9356
vn -0.0000 0.0000 -1.0000
vn -0.0000 -0.0305 -0.9995
vn 0.3516 0.0000 -0.9361
vn 0.3517 -0.0310 -0.9356
vn 0.6719 0.0000 -0.7406
vn 0.6719 -0.0321 -0.7400
vn 0.9098 0.0000 -0.4151
vn 0.9094 -0.0333 -0.4146
vn 1.0000 0.0000 -0.0000
vn 0.9994 -0.0339 -0.0000
vn 0.9098 -0.0000 0.4151
vn 0.9094 -0.0333 0.4146
vn 0.6719 -0.0000 0.7406
vn 0.6719 -0.0321 0.7400
vn 0.3516 -0.0000 0.9361
vn 0.3517 -0.0310 0.9356
vn -0.9919 -0.1268 0.0000
vn -0.9029 -0.1248 0.4114
vn 0.3496 -0.1162 -0.9297
vn -0.0000 -0.1146 -0.9934
vn 0.6675 -0.1203 0.7348
vn 0.9029 -0.1248 0.4114
vn -0.6675 -0.1203 0.7348
vn -0.3496 -0.1162 0.9297
vn -0.3496 -0.1162 -0.9297
vn -0.6675 -0.1203 -0.7348
vn 0.9919 -0.1268 -0.0000
vn 0.9029 -0.1248 -0.4114
vn -0.9029 -0.1248 -0.4114
vn 0.6675 -0.1203 -0.7348
vn 0.3496 -0.1162 0.9297
vn 0.0000 -0.1146 0.9934
vn -0.3401 -0.2588 -0.9041
vn -0.6480 -0.2672 -0.7132
vn 0.3401 -0.2588 0.9041
vn 0.6480 -0.2672 0.7132
vn -0.0000 -0.2555 -0.9668
vn -0.3401 -0.2588 0.9041
vn 0.0000 -0.2555 0.9668
vn 0.3401 -0.2588 -0.9041
vn -0.6480 -0.2672 0.7132
vn 0.6480 -0.2672 -0.7132
vn -0.8746 -0.2763 0.3985
vn 0.8746 -0.2763 -0.3985
vn -0.9599 -0.2803 0.0000
vn 0.9599 -0.2803 -0.0000
vn -0.8746 -0.2763 -0.3985
vn 0.8746 -0.2763 0.3985
vn 0.8737 -0.4865 -0.0000
vn 0.7977 -0.4808 -0.3640
vn -0.7977 -0.4808 -0.3640
vn -0.8737 -0.4865 0.0000
vn 0.7977 -0.4808 0.3640
vn -0.5939 -0.4679 -0.6545
vn 0.5939 -0.4679 0.6545
vn -0.3131 -0.4557 -0.8332
vn 0.3131 -0.4557 0.8332
vn -0.0000 -0.4509 -0.8926
vn -0.3131 -0.4557 0.8332
vn 0.0000 -0.4509 0.8926
vn 0.3131 -0.4557 -0.8332
vn -0.5939 -0.4679 0.6545
vn 0.5939 -0.4679 -0.6545
vn -0.7977 -0.4808 0.3640
vn 0.2746 -0.6225 0.7328
vn 0.5179 -0.6357 0.5724
vn -0.0000 -0.6173 -0.7867
vn -0.2746 -0.6225 -0.7328
vn -0.2746 -0.6225 0.7328
vn 0.0000 -0.6173 0.7867
vn 0.2746 -0.6225 -0.7328
vn -0.5179 -0.6357 0.5724
vn 0.5179 -0.6357 -0.5724
vn -0.6913 -0.6495 0.3164
vn 0.6913 -0.6495 -0.3164
vn -0.7552 -0.6555 0.0000
vn 0.7552 -0.6555 -0.0000
vn -0.6913 -0.6495 -0.3164
vn 0.6913 -0.6495 0.3164
vn -0.5179 -0.6357 -0.5724
vn -0.4871 -0.8439 -0.2246
vn -0.5315 -0.8470 0.0000
vn 0.4871 -0.8439 0.2246
vn 0.5315 -0.8470 -0.0000
vn -0.3660 -0.8367 -0.4074
vn 0.3660 -0.8367 0.4074
vn -0.1947 -0.8297 -0.5232
vn 0.1947 -0.8297 0.5232
vn -0.0000 -0.8269 -0.5624
vn -0.1947 -0.8297 0.5232
vn 0.0000 -0.8269 0.5624
vn 0.1947 -0.8297 -0.5232
vn -0.3660 -0.8367 0.4074
vn 0.3660 -0.8367 -0.4074
vn -0.4871 -0.8439 0.2246
vn 0.4871 -0.8439 -0.2246
vn -0.0000 -1.0000 -0.0000
s 1
f 1/1/1 2/2/2 4/3/3 3/4/4
f 3/4/4 4/3/3 6/5/5 5/6/6
f 5/6/6 6/5/5 8/7/7 7/8/8
f 7/8/8 8/7/7 10/9/9 9/10/10
f 9/10/10 10/9/9 12/11/11 11/12/12
f 11/12/12 12/11/11 14/13/13 13/14/14
f 13/14/14 14/13/13 16/15/15 15/16/16
f 15/16/16 16/15/15 18/17/17 17/18/18
f 17/18/18 18/17/17 20/19/19 19/20/20
f 19/20/20 20/19/19 22/21/21 21/22/22
f 21/22/22 22/21/21 24/23/23 23/24/24
f 23/24/24 24/23/23 26/25/25 25/26/26
f 25/26/26 26/25/25 28/27/27 27/28/28
f 27/28/28 28/27/27 30/29/29 29/30/30
f 29/30/30 30/29/29 32/31/31 31/32/32
f 31/32/32 32/31/31 2/33/2 1/34/1
f 7/8/8 9/10/10 37/35/33 36/36/34
f 17/18/18 19/20/20 42/37/35 41/38/36
f 27/28/28 29/30/30 47/39/37 46/40/38
f 3/4/4 5/6/6 35/41/39 34/42/40
f 13/14/14 15/16/16 40/43/41 39/44/42
f 23/24/24 25/26/26 45/45/43 44/46/44
f 9/10/10 11/12/12 38/47/45 37/35/33
f 19/20/20 21/22/22 43/48/46 42/37/35
f 29/30/30 31/32/32 48/49/47 47/39/37
f 5/6/6 7/8/8 36/36/34 35/41/39
f 15/16/16 17/18/18 41/38/36 40/43/41
f 25/26/26 27/28/28 46/40/38 45/45/43
f 1/1/1 3/4/4 34/42/40 33/50/48
f 11/12/12 13/14/14 39/44/42 38/47/45
f 21/22/22 23/24/24 44/46/44 43/48/46
f 31/32/32 1/34/1 33/51/48 48/49/47
f 39/44/42 40/43/41 56/52/49 55/53/50
f 47/39/37 48/49/47 64/54/51 63/55/52
f 40/43/41 41/38/36 57/56/53 56/52/49
f 33/50/48 34/42/40 50/57/54 49/58/55
f 48/49/47 33/51/48 49/59/55 64/54/51
f 41/38/36 42/37/35 58/60/56 57/56/53
f 34/42/40 35/41/39 51/61/57 50/57/54
f 42/37/35 43/48/46 59/62/58 58/60/56
f 35/41/39 36/36/34 52/63/59 51/61/57
f 43/48/46 44/46/44 60/64/60 59/62/58
f 36/36/34 37/35/33 53/65/61 52/63/59
f 44/46/44 45/45/43 61/66/62 60/64/60
f 37/35/33 38/47/45 54/67/63 53/65/61
f 45/45/43 46/40/38 62/68/64 61/66/62
f 38/47/45 39/44/42 55/53/50 54/67/63
f 46/40/38 47/39/37 63/55/52 62/68/64
f 60/64/60 61/66/62 77/69/65 76/70/66
f 53/65/61 54/67/63 70/71/67 69/72/68
f 61/66/62 62/68/64 78/73/69 77/69/65
f 54/67/63 55/53/50 71/74/70 70/71/67
f 62/68/64 63/55/52 79/75/71 78/73/69
f 55/53/50 56/52/49 72/76/72 71/74/70
f 63/55/52 64/54/51 80/77/73 79/75/71
f 56/52/49 57/56/53 73/78/74 72/76/72
f 49/58/55 50/57/54 66/79/75 65/80/76
f 64/54/51 49/59/55 65/81/76 80/77/73
f 57/56/53 58/60/56 74/82/77 73/78/74
f 50/57/54 51/61/57 67/83/78 66/79/75
f 58/60/56 59/62/58 75/84/79 74/82/77
f 51/61/57 52/63/59 68/85/80 67/83/78
f 59/62/58 60/64/60 76/70/66 75/84/79
f 52/63/59 53/65/61 69/72/68 68/85/80
f 79/75/71 80/77/73 96/86/81 95/87/82
f 72/76/72 73/78/74 89/88/83 88/89/84
f 65/80/76 66/79/75 82/90/85 81/91/86
f 80/77/73 65/81/76 81/92/86 96/86/81
f 73/78/74 74/82/77 90/93/87 89/88/83
f 66/79/75 67/83/78 83/94/88 82/90/85
f 74/82/77 75/84/79 91/95/89 90/93/87
f 67/83/78 68/85/80 84/96/90 83/94/88
f 75/84/79 76/70/66 92/97/91 91/95/89
f 68/85/80 69/72/68 85/98/92 84/96/90
f 76/70/66 77/69/65 93/99/93 92/97/91
f 69/72/68 70/71/67 86/100/94 85/98/92
f 77/69/65 78/73/69 94/101/95 93/99/93
f 70/71/67 71/74/70 87/102/96 86/100/94
f 78/73/69 79/75/71 95/87/82 94/101/95
f 71/74/70 72/76/72 88/89/84 87/102/96
f 85/98/92 86/100/94 102/103/97 101/104/98
f 93/99/93 94/101/95 110/105/99 109/106/100
f 86/100/94 87/102/96 103/107/101 102/103/97
f 94/101/95 95/87/82 111/108/102 110/105/99
f 87/102/96 88/89/84 104/109/103 103/107/101
f 95/87/82 96/86/81 112/110/104 111/108/102
f 88/89/84 89/88/83 105/111/105 104/109/103
f 81/91/86 82/90/85 98/112/106 97/113/107
f 96/86/81 81/92/86 97/114/107 112/110/104
f 89/88/83 90/93/87 106/115/108 105/111/105
f 82/90/85 83/94/88 99/116/109 98/112/106
f 90/93/87 91/95/89 107/117/110 106/115/108
f 83/94/88 84/96/90 100/118/111 99/116/109
f 91/95/89 92/97/91 108/119/112 107/117/110
f 84/96/90 85/98/92 101/104/98 100/118/111
f 92/97/91 93/99/93 109/106/100 108/119/112
f 106/115/108 107/117/110 113/120/113
f 99/116/109 100/118/111 113/121/113
f 107/117/110 108/119/112 113/122/113
f 100/118/111 101/104/98 113/123/113
f 108/119/112 109/106/100 113/124/113
f 101/104/98 102/103/97 113/125/113
f 109/106/100 110/105/99 113/126/113
f 102/103/97 103/107/101 113/127/113
f 110/105/99 111/108/102 113/128/113
f 103/107/101 104/109/103 113/129/113
f 111/108/102 112/110/104 113/130/113
f 104/109/103 105/111/105 113/131/113
f 97/113/107 98/112/106 113/132/113
f 112/110/104 97/114/107 113/133/113
f 105/111/105 106/115/108 113/134/113
f 98/112/106 99/116/109 113/135/113
