<svg height="512" viewBox="0 0 512 512" width="512" xmlns="http://www.w3.org/2000/svg"><g stroke="#000" stroke-linecap="square"><path d="m312.58129 258.00095c-4.94009 71.30466 10.28038 109.45177 45.66142 114.44128 54.12263 4.85034 63.89501-51.83479 64.78413-69.79768.39531-7.98364.45463-22.44558.17816-43.386-14.16371-4.62748-32.71581-6.97499-55.65587-7.04255-22.94006-.0675-41.2626 1.86076-54.96763 5.78495z" fill="#fff" stroke-linejoin="bevel" stroke-miterlimit="3" stroke-width="6.28798"/><g fill="none"><path d="m299.63866 262.77982c17.73083-7.77872 41.54142-11.38383 71.43158-10.81534 29.8902.5685 54.37143 5.51505 73.44375 14.83965" stroke-miterlimit="3" stroke-width="6.28798"/><g stroke-miterlimit="2" stroke-width="4.02431"><path d="m312.21466 244.79619c4.53167-2.11668 10.94543-4.045 19.24126-5.78495 8.29575-1.73995 14.54182-2.49451 18.73821-2.26367"/><path d="m202.04902 244.85854c-4.53167-2.11668-10.94542-4.045-19.24125-5.78495-8.29575-1.73995-14.54181-2.49451-18.73822-2.26367"/></g></g><g stroke-miterlimit="3" stroke-width="6.28798"><path d="m199.16718 258.00918c4.9401 71.30465-10.28038 109.45175-45.6614 114.44127-54.12263 4.85034-63.895011-51.83479-64.784132-69.79768-.3953-7.98364-.45462-22.44558-.17795-43.386 14.163692-4.62747 32.715782-6.97499 55.655852-7.04254 22.94007-.0675 41.2626 1.86076 54.96763 5.78495z" fill="#fff" stroke-linejoin="bevel"/><path d="m212.10982 262.78804c-17.73084-7.77872-41.54142-11.38383-71.43159-10.81533-29.89018.56849-54.371424 5.51505-73.443746 14.83964" fill="none"/></g></g></svg>