<?xml version="1.0" encoding="UTF-8"?>
<svg width="60" height="40" fill="none" version="1.1" viewBox="0 0 60 40" xmlns="http://www.w3.org/2000/svg">
 <path d="m3.1623 32.303h53.5v5l-3.5-2h-53z" fill="url(#paint0_linear_2_5)"/>
 <path d="m3.5083 30.303 0.034-24.48h4.148v14.96l6.715-8.84h5.117l-7.123 9.18 7.735 9.18h-5.423l-7.021-8.84v8.84zm25.086 0.51c-2.2667 0-4.1083-0.51-5.525-1.53s-2.278-2.4537-2.584-4.301l4.182-0.646c0.2153 0.9067 0.6913 1.6207 1.428 2.142s1.666 0.782 2.788 0.782c0.986 0 1.7453-0.1927 2.278-0.578 0.544-0.3967 0.816-0.935 0.816-1.615 0-0.4193-0.102-0.7537-0.306-1.003-0.1927-0.2607-0.6233-0.51-1.292-0.748s-1.6943-0.5383-3.077-0.901c-1.5413-0.408-2.7653-0.8443-3.672-1.309-0.9067-0.476-1.5583-1.037-1.955-1.683s-0.595-1.428-0.595-2.346c0-1.1447 0.3003-2.142 0.901-2.992s1.4393-1.5017 2.516-1.955c1.0767-0.4647 2.346-0.697 3.808-0.697 1.428 0 2.6917 0.221 3.791 0.663 1.1107 0.442 2.006 1.071 2.686 1.887s1.0993 1.7737 1.258 2.873l-4.182 0.748c-0.102-0.782-0.459-1.3997-1.071-1.853-0.6007-0.4533-1.4053-0.7083-2.414-0.765-0.9633-0.0567-1.7397 0.0907-2.329 0.442-0.5893 0.34-0.884 0.8217-0.884 1.445 0 0.3513 0.119 0.6517 0.357 0.901s0.714 0.4987 1.428 0.748c0.7253 0.2493 1.802 0.5553 3.23 0.918 1.462 0.374 2.6293 0.8047 3.502 1.292 0.884 0.476 1.5187 1.0483 1.904 1.717 0.3967 0.6687 0.595 1.479 0.595 2.431 0 1.8473-0.6743 3.298-2.023 4.352-1.3373 1.054-3.1903 1.581-5.559 1.581zm11.272-0.51 0.034-24.48h4.148v14.96l6.715-8.84h5.117l-7.123 9.18 7.735 9.18h-5.423l-7.021-8.84v8.84z" fill="#fff"/>
 <defs>
  <linearGradient id="paint0_linear_2_5" x1="-1.0717e-7" x2="57" y1="39.5" y2="39.5" gradientTransform="translate(.1623 -5.6968)" gradientUnits="userSpaceOnUse">
   <stop stop-color="#0ff" offset="0"/>
   <stop stop-color="#0038FF" offset=".21098"/>
   <stop stop-color="#FF00D6" offset=".54167"/>
   <stop stop-color="#f00" offset=".73701"/>
   <stop stop-color="#FF8A00" offset=".81732"/>
   <stop stop-color="#FAFF00" offset=".89563"/>
   <stop stop-color="#00FF19" offset="1"/>
  </linearGradient>
 </defs>
</svg>
