<?xml version="1.0" encoding="UTF-8" standalone="no"?>
<svg
   width="60"
   height="40"
   viewBox="0 0 60 40"
   fill="none"
   version="1.1"
   id="svg23"
   sodipodi:docname="ksk.svg"
   inkscape:version="1.2.1 (9c6d41e410, 2022-07-14)"
   xmlns:inkscape="http://www.inkscape.org/namespaces/inkscape"
   xmlns:sodipodi="http://sodipodi.sourceforge.net/DTD/sodipodi-0.dtd"
   xmlns="http://www.w3.org/2000/svg"
   xmlns:svg="http://www.w3.org/2000/svg">
  <sodipodi:namedview
     id="namedview25"
     pagecolor="#505050"
     bordercolor="#ffffff"
     borderopacity="1"
     inkscape:showpageshadow="0"
     inkscape:pageopacity="0"
     inkscape:pagecheckerboard="1"
     inkscape:deskcolor="#505050"
     showgrid="false"
     inkscape:zoom="5.1304348"
     inkscape:cx="28.555085"
     inkscape:cy="23.097458"
     inkscape:window-width="1920"
     inkscape:window-height="1056"
     inkscape:window-x="0"
     inkscape:window-y="0"
     inkscape:window-maximized="1"
     inkscape:current-layer="svg23" />
  <path
     d="m 3.1623,32.303166 h 53.5 v 3 2 l -3.5,-2 h -53 z"
     fill="url(#paint0_linear_2_5)"
     id="path2"
     style="fill:url(#paint0_linear_2_5)" />
  <path
     d="M 3.5083,30.303166 3.5423,5.8231659 h 4.148 V 20.783166 l 6.715,-8.84 h 5.117 l -7.123,9.18 7.735,9.18 h -5.423 l -7.021,-8.84 v 8.84 z m 25.0859,0.51 c -2.2667,0 -4.1083,-0.51 -5.525,-1.53 -1.4167,-1.02 -2.278,-2.4537 -2.584,-4.301 l 4.182,-0.646 c 0.2153,0.9067 0.6913,1.6207 1.428,2.142 0.7367,0.5213 1.666,0.782 2.788,0.782 0.986,0 1.7453,-0.1927 2.278,-0.578 0.544,-0.3967 0.816,-0.935 0.816,-1.615 0,-0.4193 -0.102,-0.7537 -0.306,-1.003 -0.1927,-0.2607 -0.6233,-0.51 -1.292,-0.748 -0.6687,-0.238 -1.6943,-0.5383 -3.077,-0.901 -1.5413,-0.408 -2.7653,-0.8443 -3.672,-1.309 -0.9067,-0.476 -1.5583,-1.037 -1.955,-1.683 -0.3967,-0.646 -0.595,-1.428 -0.595,-2.346 0,-1.1447 0.3003,-2.142 0.901,-2.992 0.6007,-0.85 1.4393,-1.5017 2.516,-1.955 1.0767,-0.4647 2.346,-0.697 3.808,-0.697 1.428,0 2.6917,0.221 3.791,0.663 1.1107,0.442 2.006,1.071 2.686,1.887 0.68,0.816 1.0993,1.7737 1.258,2.873 l -4.182,0.748 c -0.102,-0.782 -0.459,-1.3997 -1.071,-1.853 -0.6007,-0.4533 -1.4053,-0.7083 -2.414,-0.765 -0.9633,-0.0567 -1.7397,0.0907 -2.329,0.442 -0.5893,0.34 -0.884,0.8217 -0.884,1.445 0,0.3513 0.119,0.6517 0.357,0.901 0.238,0.2493 0.714,0.4987 1.428,0.748 0.7253,0.2493 1.802,0.5553 3.23,0.918 1.462,0.374 2.6293,0.8047 3.502,1.292 0.884,0.476 1.5187,1.0483 1.904,1.717 0.3967,0.6687 0.595,1.479 0.595,2.431 0,1.8473 -0.6743,3.298 -2.023,4.352 -1.3373,1.054 -3.1903,1.581 -5.559,1.581 z m 11.2715,-0.51 0.034,-24.4800001 h 4.148 V 20.783166 l 6.715,-8.84 h 5.117 l -7.123,9.18 7.735,9.18 h -5.423 l -7.021,-8.84 v 8.84 z"
     fill="#ffffff"
     id="path4" />
  <defs
     id="defs21">
    <linearGradient
       id="paint0_linear_2_5"
       x1="-1.07172e-07"
       y1="39.4995"
       x2="57"
       y2="39.4995"
       gradientUnits="userSpaceOnUse"
       gradientTransform="translate(0.1623,-5.6968341)">
      <stop
         stop-color="#00FFFF"
         id="stop6" />
      <stop
         offset="0.21098"
         stop-color="#0038FF"
         id="stop8" />
      <stop
         offset="0.541667"
         stop-color="#FF00D6"
         id="stop10" />
      <stop
         offset="0.737013"
         stop-color="#FF0000"
         id="stop12" />
      <stop
         offset="0.817324"
         stop-color="#FF8A00"
         id="stop14" />
      <stop
         offset="0.895626"
         stop-color="#FAFF00"
         id="stop16" />
      <stop
         offset="1"
         stop-color="#00FF19"
         id="stop18" />
    </linearGradient>
  </defs>
</svg>
