<?xml version="1.0" encoding="UTF-8"?>
<svg width="64" height="64" fill="none" version="1.1" viewBox="0 0 64 64" xmlns="http://www.w3.org/2000/svg" xmlns:xlink="http://www.w3.org/1999/xlink">
 <path d="m40.586 23.77c0.6639 0 1.2021-0.5382 1.2021-1.2021s-0.5382-1.2021-1.2021-1.2021-1.2021 0.5382-1.2021 1.2021 0.5382 1.2021 1.2021 1.2021z" fill="url(#linearGradient1554)"/>
 <path d="m40.228 23.843c-0.0919 1.3952-0.0633 1.4201-0.2409 3.0949-0.0458 0.4319-0.0906 0.8863-0.1306 1.4392-0.04 0.5528-0.1409 1.1889-0.3878 2.0294-0.2194 0.7474-0.6288 1.1375-0.9992 1.515-0.3705 0.3775-0.6941 0.7379-1.3469 1.1262-1.2292 0.7314-3.238 1.0006-4.4458 0.8638-2.7122-0.3073-4.7102-1.1542-6.2131-2.8241-1.5029-1.6698-2.4411-4.2805-2.4995-7.7613-0.0281-1.6714 0.055-2.9522 0.2285-4.0632 0.1735-1.111 0.5947-2.038 1.2571-3.0162 1.2984-1.9176 3.8555-3.2837 6.1764-3.2837 4.6419 0 8.9781 5.169 8.6018 10.88z" fill="url(#paint1_linear_14_50)" stroke="url(#paint2_linear_14_50)" stroke-width="1.5"/>
 <path d="m36.084 44.607c-0.0265 0.571-0.0756 0.5891-0.2247 0.7875-0.1491 0.1983-0.4203 0.0856-0.768 0.026-0.7119-0.1221-1.6451-0.5849-2.3351-0.4425-0.695 0.0211-3.1913 2.3581-3.1913 2.3581s-0.2959-0.193-0.6407-0.6056c-0.8904-1.0652-0.5463-0.6956-1.1231-1.7227-0.6118-1.0893-0.9452-2.782-0.6194-5.1362 0.1616-1.1681 0.3285-2.5532 0.5165-4.1237 0.1875-1.5666 0.3478-3.3168 0.3478-3.3168s0.9365 0.6092 2.0609 0.9556c0.3079 0.0949 0.6618 0.1863 1.063 0.2725 0.4164 0.0894 0.8215 0.1775 1.2155 0.2266 0.2337 0.0291 1.0878 0.1065 1.8035 0.0241 0.3545-0.0409 1.2504-0.1969 1.2504-0.1969s0.086 0.4875 0.1135 0.6426 0.1026 1.3104 0.1026 1.3104-0.4814-1.119-1.0962-1.4358c-0.6148-0.3169-1.363 0.1684-1.5126 0.3565-0.5982 0.7523 0.1681 2.542 0.2642 2.885 0.3844 1.3722 1.2827 3.439 1.2827 3.439 0.3526 0.7088 0.6491 1.2709 0.9094 1.8706 0.4826 1.1116 0.6166 1.0623 0.5811 1.8257z" fill="url(#paint1_linear_14_50)" stroke="url(#paint4_linear_14_50)"/>
 <path d="m38.568 45.948c-0.3806 0.0559-0.7873 0.1543-1.3356-0.2062-0.6026-0.3961-1.1292-1.7088-1.7229-2.9662s-1.2544-2.4595-1.5821-3.4345c-0.723-2.1514-1.2442-3.3557-1.1152-4.0592 0.0683-0.3726 0.0873-0.5169 0.1773-0.6217 0.0517-0.0601 0.083-0.1111 0.1648-0.1745 0.0937-0.0725 0.1204-0.0852 0.1788-0.1233 0.0583-0.038 0.1482-0.1014 0.2965-0.1465 0.3555-0.1082 0.6006-0.1221 0.8504-0.0137 0.2497 0.1083 0.5041 0.3387 0.8177 0.8403 0.627 1.0032 1.5713 2.9998 1.5713 2.9998s0.5869 1.0975 1.2377 2.3156c0.6507 1.2181 1.4461 2.567 1.5801 3.2922 0.1339 0.7252-0.0351 1.3374-0.275 1.7182-0.24 0.3808-0.4581 0.5231-0.8438 0.5797z" fill="url(#paint5_linear_14_50)" stroke="url(#paint6_linear_14_50)"/>
 <path d="m26.783 38.048c-0.5505 0.6016-0.7139 0.5657-1.3587 0.5253-0.5679-0.0356-1.076-0.8385-1.2071-1.3334-0.0366-0.138-0.0455-0.5641 0.0071-0.7667 0.1367-0.5265 0.1841-0.525 0.3578-0.7347 0.3682-0.4449 0.6688-0.7101 0.8826-0.8978 0.2238-0.1964 2.5816-2.4099 2.5816-2.4099l-0.5434 4.8856s-0.481 0.4705-0.7199 0.7316z" fill="url(#paint5_linear_14_50)" stroke="url(#paint8_linear_14_50)"/>
 <path d="m27.487 44.318c0.2061 0.5033 0.4438 0.9572 0.4438 0.9572-2.8703 0.2654-5.7297 0.5394-8.6031 0.7689 0 0-0.7626-0.3152-1.1514-0.9148-0.3888-0.5995-0.4038-1.4834-0.4038-1.7317 0-0.2482 0.1986-1.0901 0.6042-1.6426 0.4057-0.5526 1.0184-0.8157 1.0184-0.8157 2.5664 0.0429 5.1129 0.0751 7.6796 0.101 0 0-0.0319 0.3674-0.0253 0.7869 0.0075 0.8549 0.1558 1.7708 0.4376 2.4908z" fill="url(#paint9_linear_14_50)" stroke="url(#paint10_linear_14_50)"/>
 <path d="m36.053 45.037s0.2344 0.7193 0.2194 1.0753c-0.015 0.3561-0.3592 1.0397-0.3592 1.0397l-4.3471 6.6363s-0.9811 0.4281-1.5487 0.4443c-0.5279 0.015-0.5197-0.0159-1.088-0.2492-1.1366-0.4666-1.9095-2.0616-1.9095-2.817 0-0.3777 0.1064-1.0852 0.32-1.5625 0.2135-0.4774 0.5342-0.7246 0.5342-0.7246l3.0573-2.7483s0.5646-0.4871 1.0402-0.7814c0.4756-0.2942 0.8622-0.3956 0.9919-0.3956 0.5188 0 1.1835 0.229 1.816 0.3879 0.2508 0.0631 0.6924 0.2208 0.957 0.1341 0.2646-0.0866 0.3165-0.439 0.3165-0.439z" fill="url(#paint9_linear_14_50)" stroke="url(#paint12_linear_14_50)"/>
 <path d="m47.486 15.891c1.127 0 2.0405-0.91357 2.0405-2.0405s-0.9135-2.0405-2.0405-2.0405c-1.1269 0-2.0405 0.91357-2.0405 2.0405s0.9136 2.0405 2.0405 2.0405z" fill="url(#linearGradient1554)"/>
 <path d="m41.95 17.325c1.1269 0 2.0405-0.91356 2.0405-2.0405s-0.9136-2.0405-2.0405-2.0405-2.0405 0.91357-2.0405 2.0405 0.9136 2.0405 2.0405 2.0405z" fill="url(#linearGradient1554)"/>
 <path d="m56.395 19.851c1.0265 0 1.8587-0.8322 1.8587-1.8587 0-1.0265-0.8322-1.8587-1.8587-1.8587s-1.8587 0.83216-1.8587 1.8587c0 1.0265 0.8322 1.8587 1.8587 1.8587z" fill="url(#linearGradient1554)"/>
 <path d="m57.84 23.285c0.9875 0 1.788-0.8005 1.788-1.788 0-0.9874-0.8005-1.7879-1.788-1.7879s-1.788 0.8005-1.788 1.7879c0 0.9875 0.8005 1.788 1.788 1.788z" fill="url(#linearGradient1554)"/>
 <path d="m58.183 26.8c0.9317 0 1.687-0.7553 1.687-1.6869 0-0.9317-0.7553-1.687-1.687-1.687-0.9316 0-1.6869 0.7553-1.6869 1.687 0 0.9316 0.7553 1.6869 1.6869 1.6869z" fill="url(#linearGradient1554)"/>
 <path d="m55.628 32.377c0.5917 0 1.0713-0.4797 1.0713-1.0714s-0.4796-1.0713-1.0713-1.0713-1.0714 0.4796-1.0714 1.0713 0.4797 1.0714 1.0714 1.0714z" fill="url(#linearGradient1554)"/>
 <path d="m53.369 32.897c0.613 0 1.11-0.4969 1.11-1.11 0-0.613-0.497-1.11-1.11-1.11-0.6131 0-1.11 0.497-1.11 1.11 0 0.6131 0.4969 1.11 1.11 1.11z" fill="url(#linearGradient1554)"/>
 <path d="m46.9 29.871c0.6807 0 1.2324-0.5518 1.2324-1.2324s-0.5517-1.2324-1.2324-1.2324c-0.6806 0-1.2323 0.5518-1.2323 1.2324s0.5517 1.2324 1.2323 1.2324z" fill="url(#linearGradient1554)"/>
 <path d="m43.9 27.063c0.6639 0 1.2021-0.5382 1.2021-1.2021s-0.5382-1.2021-1.2021-1.2021-1.2021 0.5382-1.2021 1.2021 0.5382 1.2021 1.2021 1.2021z" fill="url(#linearGradient1554)"/>
 <path d="m26.161 28.042c1.1282 0 2.0428-0.9146 2.0428-2.0428s-0.9146-2.0428-2.0428-2.0428-2.0428 0.9146-2.0428 2.0428 0.9146 2.0428 2.0428 2.0428z" fill="url(#linearGradient1554)"/>
 <path d="m20.318 33.328c1.1203 0 2.0285-0.9082 2.0285-2.0285s-0.9082-2.0285-2.0285-2.0285-2.0285 0.9082-2.0285 2.0285 0.9082 2.0285 2.0285 2.0285z" fill="url(#linearGradient1554)"/>
 <path d="m15.275 37.828c1.0966 0 1.9856-0.889 1.9856-1.9856 0-1.0967-0.889-1.9857-1.9856-1.9857-1.0967 0-1.9857 0.889-1.9857 1.9857 0 1.0966 0.88897 1.9856 1.9857 1.9856z" fill="url(#linearGradient1554)"/>
 <path d="m9.7038 41.842c1.0414 0 1.8856-0.8442 1.8856-1.8856s-0.84423-1.8857-1.8856-1.8857c-1.0414 0-1.8856 0.8443-1.8856 1.8857s0.84423 1.8856 1.8856 1.8856z" fill="url(#linearGradient1554)"/>
 <path d="m7.3537 42.27c0.99802 0 1.8071-0.8091 1.8071-1.8071s-0.80905-1.8071-1.8071-1.8071c-0.99801 0-1.8071 0.8091-1.8071 1.8071s0.80906 1.8071 1.8071 1.8071z" fill="url(#linearGradient1554)"/>
 <path d="m6.0895 40.856c0.93884 0 1.6999-0.7611 1.6999-1.6999 0-0.9389-0.76109-1.7-1.6999-1.7-0.93885 0-1.6999 0.7611-1.6999 1.7 0 0.9388 0.76108 1.6999 1.6999 1.6999z" fill="url(#linearGradient1554)"/>
 <path d="m6.7323 31.485c0.8126 0 1.4714-0.6588 1.4714-1.4714s-0.65875-1.4714-1.4714-1.4714c-0.81261 0-1.4714 0.6588-1.4714 1.4714s0.65875 1.4714 1.4714 1.4714z" fill="url(#linearGradient1554)"/>
 <path d="m8.2466 26.742c0.78105 0 1.4142-0.6331 1.4142-1.4142 0-0.781-0.63316-1.4142-1.4142-1.4142s-1.4142 0.6332-1.4142 1.4142c0 0.7811 0.63316 1.4142 1.4142 1.4142z" fill="url(#linearGradient1554)"/>
 <path d="m14.182 16.142c0.7061 0 1.2785-0.57241 1.2785-1.2785 0-0.7061-0.5724-1.2785-1.2785-1.2785-0.70608 0-1.2785 0.5724-1.2785 1.2785 0 0.70609 0.57241 1.2785 1.2785 1.2785z" fill="url(#linearGradient1554)"/>
 <path d="m17.061 13.456c0.7021 0 1.2713-0.5692 1.2713-1.2714s-0.5692-1.2714-1.2713-1.2714c-0.7022 0-1.2714 0.56921-1.2714 1.2714s0.5692 1.2714 1.2714 1.2714z" fill="url(#linearGradient1554)"/>
 <path d="m20.268 11.899c0.6825 0 1.2357-0.55322 1.2357-1.2356 0-0.68243-0.5532-1.2356-1.2357-1.2356-0.6824 0-1.2356 0.55322-1.2356 1.2356 0 0.68242 0.5532 1.2356 1.2356 1.2356z" fill="url(#linearGradient1554)"/>
 <path d="m28.804 13.128c0.5996 0 1.0857-0.48605 1.0857-1.0856 0-0.59958-0.4861-1.0856-1.0857-1.0856-0.5995 0-1.0856 0.48606-1.0856 1.0856 0 0.59959 0.4861 1.0856 1.0856 1.0856z" fill="url(#linearGradient1554)"/>
 <path d="m23.565 11.446c0.6026 0 1.091-0.48844 1.091-1.091 0-0.60252-0.4884-1.091-1.091-1.091-0.6025 0-1.0909 0.48844-1.0909 1.091 0 0.60253 0.4884 1.091 1.0909 1.091z" fill="url(#linearGradient1554)"/>
 <path d="m26.486 12.042c0.5579 0 1.0101-0.45226 1.0101-1.0102 0-0.5579-0.4522-1.0102-1.0101-1.0102s-1.0102 0.45226-1.0102 1.0102c0 0.55789 0.4523 1.0102 1.0102 1.0102z" fill="url(#linearGradient1554)"/>
 <path d="m52.93 16.546c1.171 0 2.1204-0.94935 2.1204-2.1204s-0.9494-2.1204-2.1204-2.1204c-1.1711 0-2.1205 0.94935-2.1205 2.1204s0.9494 2.1204 2.1205 2.1204z" fill="url(#linearGradient1554)"/>
 <path d="m57.884 28.73c0.781 0 1.4142-0.6332 1.4142-1.4142 0-0.7811-0.6332-1.4142-1.4142-1.4142-0.7811 0-1.4142 0.6331-1.4142 1.4142 0 0.781 0.6331 1.4142 1.4142 1.4142z" fill="url(#linearGradient1554)"/>
 <path d="m57.143 30.861c0.7364 0 1.3334-0.5969 1.3334-1.3334 0-0.7364-0.597-1.3334-1.3334-1.3334s-1.3334 0.597-1.3334 1.3334c0 0.7365 0.597 1.3334 1.3334 1.3334z" fill="url(#linearGradient1554)"/>
 <path d="m49.789 31.791c0.5913 0 1.0707-0.4794 1.0707-1.0708 0-0.5913-0.4794-1.0707-1.0707-1.0707-0.5914 0-1.0708 0.4794-1.0708 1.0707 0 0.5914 0.4794 1.0708 1.0708 1.0708z" fill="url(#linearGradient1554)"/>
 <path d="m35.717 20.295c0.9316 0 1.6869-0.7552 1.6869-1.6869 0-0.93168-0.7553-1.687-1.6869-1.687-0.9317 0-1.687 0.75528-1.687 1.687 0 0.93171 0.7553 1.6869 1.687 1.6869z" fill="url(#linearGradient1554)"/>
 <path d="m30.99 24.091c0.9429 0 1.7072-0.7643 1.7072-1.7071 0-0.9429-0.7643-1.7072-1.7072-1.7072-0.9428 0-1.7071 0.7643-1.7071 1.7072 0 0.9428 0.7643 1.7071 1.7071 1.7071z" fill="url(#linearGradient1554)"/>
 <path d="m12.07 40.054c0.87031 0 1.5758-0.7055 1.5758-1.5758s-0.70552-1.5758-1.5758-1.5758c-0.87032 0-1.5758 0.7055-1.5758 1.5758s0.70552 1.5758 1.5758 1.5758z" fill="url(#linearGradient1554)"/>
 <path d="m5.7057 37.811c0.87031 0 1.5758-0.7055 1.5758-1.5758s-0.70553-1.5759-1.5758-1.5759c-0.87031 0-1.5758 0.7056-1.5758 1.5759s0.70553 1.5758 1.5758 1.5758z" fill="url(#linearGradient1554)"/>
 <path d="m6.0088 34.76c0.90378 0 1.6364-0.7326 1.6364-1.6364s-0.73267-1.6365-1.6364-1.6365-1.6364 0.7327-1.6364 1.6365 0.73267 1.6364 1.6364 1.6364z" fill="url(#linearGradient1554)"/>
 <path d="m10.302 21.891c0.6862 0 1.2425-0.5563 1.2425-1.2425s-0.55628-1.2425-1.2425-1.2425c-0.68621 0-1.2425 0.5563-1.2425 1.2425s0.55628 1.2425 1.2425 1.2425z" fill="url(#linearGradient1554)"/>
 <path d="m12.08 18.82c0.6639 0 1.2021-0.53819 1.2021-1.2021s-0.53819-1.2021-1.2021-1.2021c-0.66389 0-1.2021 0.53819-1.2021 1.2021s0.53819 1.2021 1.2021 1.2021z" fill="url(#linearGradient1554)"/>
 <defs>
  <linearGradient id="linearGradient1552-5">
   <stop stop-color="#fff" offset="0"/>
   <stop stop-color="#fff" stop-opacity="0" offset="1"/>
  </linearGradient>
  <linearGradient id="paint1_linear_14_50" x1="16.514" x2="37.842" y1="17.514" y2="32.941" gradientTransform="translate(4 8.77)" gradientUnits="userSpaceOnUse">
   <stop stop-color="#43B6CF" offset="0"/>
   <stop stop-color="#354782" offset="1"/>
  </linearGradient>
  <linearGradient id="paint2_linear_14_50" x1="19.9" x2="36.309" y1="14.685" y2="14.685" gradientTransform="translate(4 8.77)" gradientUnits="userSpaceOnUse">
   <stop offset="0"/>
   <stop stop-opacity="0" offset="1"/>
  </linearGradient>
  <linearGradient id="paint4_linear_14_50" x1="23.017" x2="37.842" y1="31.105" y2="32.941" gradientTransform="translate(4 8.77)" gradientUnits="userSpaceOnUse">
   <stop offset="0"/>
   <stop stop-opacity="0" offset="1"/>
  </linearGradient>
  <linearGradient id="paint5_linear_14_50" x1="16.514" x2="37.842" y1="17.514" y2="32.942" gradientTransform="translate(4 8.77)" gradientUnits="userSpaceOnUse">
   <stop stop-color="#43B6CF" offset="0"/>
   <stop stop-color="#354782" offset="1"/>
  </linearGradient>
  <linearGradient id="paint6_linear_14_50" x1="28.709" x2="37.842" y1="31.295" y2="32.941" gradientTransform="translate(4 8.77)" gradientUnits="userSpaceOnUse">
   <stop offset="0"/>
   <stop stop-opacity="0" offset="1"/>
  </linearGradient>
  <linearGradient id="paint8_linear_14_50" x1="20.147" x2="24.098" y1="26.711" y2="26.711" gradientTransform="translate(4 8.77)" gradientUnits="userSpaceOnUse">
   <stop offset="0"/>
   <stop stop-opacity="0" offset="1"/>
  </linearGradient>
  <linearGradient id="paint9_linear_14_50" x1="16.514" x2="37.842" y1="17.514" y2="32.942" gradientTransform="translate(4 8.77)" gradientUnits="userSpaceOnUse">
   <stop stop-color="#43B6CF" offset="0"/>
   <stop stop-color="#354782" offset="1"/>
  </linearGradient>
  <linearGradient id="paint10_linear_14_50" x1="13.732" x2="23.994" y1="34.722" y2="34.722" gradientTransform="translate(4 8.77)" gradientUnits="userSpaceOnUse">
   <stop offset="0"/>
   <stop stop-opacity="0" offset="1"/>
  </linearGradient>
  <linearGradient id="paint12_linear_14_50" x1="22.98" x2="32.313" y1="40.825" y2="40.825" gradientTransform="translate(4 8.77)" gradientUnits="userSpaceOnUse">
   <stop offset="0"/>
   <stop stop-opacity="0" offset="1"/>
  </linearGradient>
  <linearGradient id="linearGradient1554" x1="6.177" x2="48.321" y1="6.0206" y2="32.214" gradientTransform="translate(4 8.77)" gradientUnits="userSpaceOnUse" xlink:href="#linearGradient1552-5"/>
 </defs>
</svg>
