<?xml version="1.0" encoding="UTF-8"?>
<!-- Created using Krita: https://krita.org -->
<svg width="1024" height="800" version="1.1" viewBox="0 0 1024 800" xmlns="http://www.w3.org/2000/svg">
 <rect width="1024" height="800" ry="0" fill="#1f1f1f"/>
 <g stroke="#2b2b2b" stroke-linecap="square">
  <g fill="none">
   <path d="m760.64 724.72h14.722" stroke-miterlimit="2.6667" stroke-width="4.192"/>
   <g stroke-miterlimit="2">
    <path d="m600.65 454.44h114" stroke-width="4.192"/>
    <path d="m821.16 454.25h114" stroke-width="4.192"/>
    <g stroke-width="6.288">
     <path d="m931.99 549.66c0.0377 9.1104 4e-3 17.581-0.0905 25.41-2.4256 54.987-27.225 79.805-54.764 79.805-50.8-0.32638-55.103-67.467-55.411-81.917-0.0797-3.74-0.39716-11.757-0.39716-23.574" fill-rule="evenodd"/>
     <path d="m604.01 549.66c-0.0377 9.1104-4e-3 17.581 0.0905 25.41 2.4256 54.987 27.225 79.805 54.764 79.805 50.8-0.32639 55.103-67.467 55.411-81.917 0.0798-3.74 0.39716-11.757 0.39716-23.574" fill-rule="evenodd"/>
     <path d="m942.91 547.77h-127.5"/>
    </g>
    <path d="m878.98 532.98h-58.469" stroke-width="2.9344"/>
    <path d="m593.09 547.51h127.5" stroke-width="6.288"/>
    <path d="m657.01 532.72h58.469" stroke-width="2.9344"/>
   </g>
  </g>
  <ellipse cx="840.27" cy="567.36" rx="13.877" ry="14.538" fill="#383838" fill-rule="evenodd" stroke-linejoin="bevel" stroke-width="4.716"/>
  <ellipse transform="scale(-1,1)" cx="-622.68" cy="567.26" rx="13.877" ry="14.538" fill="#383838" fill-rule="evenodd" stroke-linejoin="bevel" stroke-width="4.716"/>
 </g>
 <g stroke="#2b2b2b" stroke-linecap="square">
  <g fill="none">
   <g>
    <g stroke-width="4.192">
     <path d="m234.77 724.64c3.5904 11.509 10.494 17.239 20.71 17.19 10.217-0.0491 17.384-5.8479 21.502-17.396" stroke-linejoin="bevel" stroke-miterlimit="2.6667"/>
     <path d="m421.79 469.17-112.47-10.301" stroke-miterlimit="2"/>
     <path d="m89.965 469.42 112.47-10.301" stroke-miterlimit="2"/>
    </g>
    <path d="m312.58 548c-4.9401 71.305 10.28 109.45 45.661 114.44 54.123 4.8503 63.895-51.835 64.784-69.798 0.39531-7.9836 0.45463-22.446 0.17816-43.386-14.164-4.6275-32.716-6.975-55.656-7.0426-22.94-0.0675-41.263 1.8608-54.968 5.785z" stroke-linejoin="bevel" stroke-miterlimit="3" stroke-width="6.288"/>
    <path d="m299.64 552.78c17.731-7.7787 41.541-11.384 71.432-10.815 29.89 0.5685 54.371 5.515 73.444 14.84" stroke-miterlimit="3" stroke-width="6.288"/>
   </g>
   <path d="m312.22 534.8c4.5317-2.1167 10.945-4.045 19.241-5.785 8.2958-1.74 14.542-2.4945 18.738-2.2637" stroke-miterlimit="2" stroke-width="4.0243"/>
   <path d="m202.05 534.86c-4.5317-2.1167-10.945-4.045-19.241-5.785-8.2958-1.74-14.542-2.4945-18.738-2.2637" stroke-miterlimit="2" stroke-width="4.0243"/>
   <path d="m199.17 548.01c4.9401 71.305-10.28 109.45-45.661 114.44-54.123 4.8503-63.895-51.835-64.784-69.798-0.3953-7.9836-0.45462-22.446-0.17795-43.386 14.164-4.6275 32.716-6.975 55.656-7.0425 22.94-0.0675 41.263 1.8608 54.968 5.785z" stroke-linejoin="bevel" stroke-miterlimit="3" stroke-width="6.288"/>
   <path d="m212.11 552.79c-17.731-7.7787-41.541-11.384-71.432-10.815-29.89 0.56849-54.371 5.515-73.444 14.84" stroke-miterlimit="3" stroke-width="6.288"/>
  </g>
  <ellipse cx="330.72" cy="564.23" rx="13.877" ry="14.538" fill="#383838" fill-rule="evenodd" stroke-linejoin="bevel" stroke-width="4.716"/>
  <ellipse transform="scale(-1,1)" cx="-107.25" cy="564.24" rx="13.877" ry="14.538" fill="#383838" fill-rule="evenodd" stroke-linejoin="bevel" stroke-width="4.716"/>
 </g>
 <g stroke="#2b2b2b" stroke-linecap="square">
  <g fill="none">
   <g>
    <g stroke-linejoin="bevel">
     <g stroke-width="4.192">
      <path d="m746.77 324.64c3.5904 11.509 10.494 17.239 20.71 17.19 10.217-0.0491 17.384-5.8479 21.502-17.396" stroke-miterlimit="2.6667"/>
      <path d="m825.22 64.999c13.579-4.181 32.515-6.4512 56.807-6.8104 24.292-0.35917 50.798 4.7615 79.517 15.362"/>
      <path d="m710.78 65.144c-13.579-4.181-32.515-6.4512-56.807-6.8104-24.292-0.35917-50.798 4.7615-79.517 15.362"/>
     </g>
     <path d="m824.58 148c-4.9401 71.305 10.28 109.45 45.661 114.44 54.123 4.8503 63.895-51.835 64.784-69.798 0.39531-7.9836 0.45463-22.446 0.17816-43.386-14.164-4.6275-32.716-6.975-55.656-7.0426-22.94-0.0675-41.263 1.8608-54.968 5.785z" stroke-miterlimit="3" stroke-width="6.288"/>
    </g>
    <path d="m811.64 152.78c17.731-7.7787 41.541-11.384 71.432-10.815 29.89 0.5685 54.371 5.515 73.444 14.84" stroke-miterlimit="3" stroke-width="6.288"/>
   </g>
   <path d="m824.22 134.8c4.5317-2.1167 10.945-4.045 19.241-5.785 8.2958-1.74 14.542-2.4945 18.738-2.2637" stroke-miterlimit="2" stroke-width="4.0243"/>
   <path d="m714.05 134.86c-4.5317-2.1167-10.945-4.045-19.241-5.785-8.2958-1.74-14.542-2.4945-18.738-2.2637" stroke-miterlimit="2" stroke-width="4.0243"/>
   <path d="m711.17 148.01c4.9401 71.305-10.28 109.45-45.661 114.44-54.123 4.8503-63.895-51.835-64.784-69.798-0.3953-7.9836-0.45462-22.446-0.17795-43.386 14.164-4.6275 32.716-6.975 55.656-7.0425 22.94-0.0675 41.263 1.8608 54.968 5.785z" stroke-linejoin="bevel" stroke-miterlimit="3" stroke-width="6.288"/>
   <path d="m724.11 152.79c-17.731-7.7787-41.541-11.384-71.432-10.815-29.89 0.56849-54.371 5.515-73.444 14.84" stroke-miterlimit="3" stroke-width="6.288"/>
  </g>
  <g fill-rule="evenodd" stroke-linejoin="bevel">
   <path d="m952.55 153.86 7.7325 2.2391-6.9765 13.967-3.339-0.73254z" fill="#2b2b2b" stroke-width="0"/>
   <path d="m583.2 153.99-7.7325 2.2391 6.9765 13.967 3.339-0.73253z" fill="#2b2b2b" stroke-width="0"/>
   <ellipse cx="842.72" cy="164.23" rx="13.877" ry="14.538" fill="#383838" stroke-width="4.716"/>
   <ellipse transform="scale(-1,1)" cx="-619.24" cy="164.24" rx="13.877" ry="14.538" fill="#383838" stroke-width="4.716"/>
  </g>
 </g>
 <g stroke="#2b2b2b" stroke-linecap="square">
  <g fill="none">
   <path d="m235.19 318.72c1.7134 5.7214 5.2472 8.5932 10.601 8.6153 3.5695 0.0168 6.9727-2.193 10.21-6.6235 3.2021 4.4324 6.6705 6.6473 10.405 6.6449 5.6026-4e-3 9.071-2.8825 10.406-8.6367" stroke-miterlimit="2.6667" stroke-width="4.192"/>
   <g stroke-miterlimit="2">
    <path d="m421.91 72.762-112.47 6.699" stroke-width="4.192"/>
    <path d="m90.089 73.02 112.47 6.699" stroke-width="4.192"/>
    <g stroke-width="6.288">
     <path d="m419.99 149.66c0.0377 9.1104 4e-3 17.581-0.0905 25.41-2.4256 54.987-27.225 79.805-54.764 79.805-50.8-0.32638-55.103-67.467-55.411-81.917-0.0797-3.74-0.39716-11.757-0.39716-23.574" fill-rule="evenodd"/>
     <path d="m92.011 149.66c-0.0377 9.1104-4e-3 17.581 0.0905 25.41 2.4256 54.987 27.225 79.805 54.764 79.805 50.8-0.32639 55.103-67.467 55.411-81.917 0.0798-3.74 0.39716-11.757 0.39716-23.574" fill-rule="evenodd"/>
     <path d="m430.91 147.77h-127.5"/>
    </g>
    <path d="m366.98 132.98h-58.469" stroke-width="2.9344"/>
    <path d="m81.086 147.51h127.5" stroke-width="6.288"/>
    <path d="m145.01 132.72h58.469" stroke-width="2.9344"/>
   </g>
  </g>
  <g fill-rule="evenodd" stroke-linejoin="bevel">
   <path d="m85.652 145.44-7.7325 2.2391c0 4.1346 0.25932 7.5763 1.0253 10.456 0.67661 2.5438 3.2538 7.2365 7.2089 14.144-1.3497-7.8823-1.7566-12.884-1.874-14.937-0.11751-2.0527 0.12216-5.9972 1.3724-11.902z" fill="#2b2b2b" stroke-width="0"/>
   <path d="m426.35 145.44 7.7325 2.2391c0 4.1345-0.25949 7.5763-1.0252 10.456-0.67662 2.5438-3.2538 7.2365-7.2089 14.144 1.3497-7.8823 1.7566-12.884 1.874-14.937 0.11733-2.0527-0.122-5.9972-1.3724-11.902z" fill="#2b2b2b" stroke-width="0"/>
   <ellipse cx="328.27" cy="167.36" rx="13.877" ry="14.538" fill="#383838" stroke-width="4.716"/>
   <ellipse transform="scale(-1,1)" cx="-110.68" cy="167.26" rx="13.877" ry="14.538" fill="#383838" stroke-width="4.716"/>
  </g>
 </g>
</svg>
