<svg height="512" viewBox="0 0 512 512" width="512" xmlns="http://www.w3.org/2000/svg"><g stroke="#000" stroke-linecap="square" stroke-miterlimit="2"><path d="m419.86496 268.06173c.0377 9.11045.004 17.58057-.0905 25.41029-2.42564 54.98672-27.22532 79.80487-54.76397 79.80487-50.79964-.32638-55.10318-67.46722-55.41135-81.91713-.0797-3.73998-.39716-11.75713-.39716-23.574" fill="#fff" fill-rule="evenodd" stroke-width="6.28798"/><path d="m91.886002 268.061c-.0377 9.11044-.004 17.58056.0905 25.41029 2.425643 54.98672 27.225328 79.80487 54.763988 79.80487 50.79968-.32639 55.10319-67.46723 55.41137-81.91713.0798-3.73999.39716-11.75713.39716-23.57401" fill="#fff" fill-rule="evenodd" stroke-width="6.28798"/><g fill="none"><path d="m430.78735 266.17498c-42.50121 0-85.00242 0-127.50364 0" stroke-width="6.28798"/><path d="m366.85944 251.38176h-58.46854" stroke-width="2.93439"/><path d="m80.96114 265.91687h127.50365" stroke-width="6.28798"/><path d="m144.88907 251.12365h58.46853" stroke-width="2.93439"/></g></g></svg>