<svg xmlns="http://www.w3.org/2000/svg" xmlns:xlink="http://www.w3.org/1999/xlink" xml:space="preserve" viewBox="0 0 256 64" fill="none"><g style="display:inline;opacity:1;fill:url(#a);fill-opacity:1;stroke:url(#b);stroke-width:1.8;stroke-dasharray:none;stroke-opacity:1;filter:url(#c)" transform="translate(5.764 -.499)"><path d="M27.344 13.136c4.673-2.46 11.205.897 12.806 4.703 1.453 3.454.316 12.423-1.303 13.996-1.667 1.619-5.463 3.78-9.776 2.826-4.335-.958-6.398-6.555-6.616-10.672-.214-4.045.216-8.393 4.889-10.853z" style="fill:url(#d);fill-opacity:1;stroke:url(#e);stroke-width:1.8;stroke-linejoin:round;stroke-dasharray:none;stroke-opacity:1"/><path d="m25.588 42.82 1.55-8.878s.34.549 2.487.938c2.21.4 3.42-.128 3.42-.128l.025.258s-.97.191-1.074 1.312c-.136 1.484 1.537 3.878 1.537 3.878l.59 5.513-.432.718s-2.048-.647-3.216-.593-2.965 1.025-2.965 1.025l-.826-.486s-.63-.88-.791-1.707c-.162-.826-.306-1.85-.306-1.85Z" style="fill:url(#f);fill-opacity:1;stroke:url(#g);stroke-width:1.8;stroke-linejoin:round;stroke-dasharray:none;stroke-opacity:1"/><path d="m26.309 33.414.701.5-.5 3.023s-3.276 2.963-4.337 1.669.72-2.669.72-2.669z" style="fill:url(#h);fill-opacity:1;stroke:url(#i);stroke-width:1.8;stroke-linejoin:round;stroke-dasharray:none;stroke-opacity:1"/><path d="M32.982 35.138c.364-.216 1.374.135 1.374.135l4.234 7.159s1.59 2.807.546 3.532c-1.212.841-2.318-.647-2.318-.647s-4.587-7.153-4.663-8.517c-.054-.97.463-1.446.827-1.662z" style="fill:url(#j);fill-opacity:1;stroke:url(#k);stroke-width:1.8;stroke-linejoin:round;stroke-dasharray:none;stroke-opacity:1"/><path d="m25.264 42.91-7.313 1.832s-2.875.755-2.552 2.444c.324 1.689 3.163 1.384 3.163 1.384l8.023-2.139s-.692-.961-.831-1.82c-.14-.857-.279-1.666-.279-1.666z" style="fill:url(#l);fill-opacity:1;stroke:url(#m);stroke-width:1.8;stroke-linejoin:round;stroke-dasharray:none;stroke-opacity:1"/><path d="m29.45 46.18-5.264 2.192s-2.695 1.294-2.102 2.965 3.27 1.06 3.27 1.06l6.918-3.09 1.258-.971.251-.521-.099-1.249s-2.057-.656-2.866-.62a5.2 5.2 0 0 0-1.365.234z" style="fill:url(#n);fill-opacity:1;stroke:url(#o);stroke-width:1.8;stroke-linejoin:round;stroke-dasharray:none;stroke-opacity:1"/></g><defs><linearGradient id="p" x1="16.514" x2="37.842" y1="17.514" y2="32.941" gradientTransform="translate(4 8.77)" gradientUnits="userSpaceOnUse"><stop offset="0" stop-color="#43B6CF" style="stop-color:#26d9d9;stop-opacity:1"/><stop offset="1" stop-color="#354782" style="stop-color:#2662d9;stop-opacity:1"/></linearGradient><linearGradient id="q" x1="5.455" x2="58.953" y1="-1.646" y2="41.831" gradientTransform="translate(4 8.77)" gradientUnits="userSpaceOnUse"><stop/><stop offset="1" stop-opacity="0"/></linearGradient><linearGradient xlink:href="#p" id="a" x1="12.528" x2="35.533" y1="35.653" y2="48.359" gradientUnits="userSpaceOnUse"/><linearGradient xlink:href="#q" id="b" x1="16.453" x2="38.532" y1="39.617" y2="53.187" gradientUnits="userSpaceOnUse"/><linearGradient xlink:href="#p" id="d" x1="12.528" x2="35.533" y1="35.653" y2="48.359" gradientUnits="userSpaceOnUse"/><linearGradient xlink:href="#q" id="e" x1="16.453" x2="38.532" y1="39.617" y2="53.187" gradientUnits="userSpaceOnUse"/><linearGradient xlink:href="#p" id="f" x1="12.528" x2="35.533" y1="35.653" y2="48.359" gradientUnits="userSpaceOnUse"/><linearGradient xlink:href="#q" id="g" x1="16.453" x2="38.532" y1="39.617" y2="53.187" gradientUnits="userSpaceOnUse"/><linearGradient xlink:href="#p" id="h" x1="12.528" x2="35.533" y1="35.653" y2="48.359" gradientUnits="userSpaceOnUse"/><linearGradient xlink:href="#q" id="i" x1="16.453" x2="38.532" y1="39.617" y2="53.187" gradientUnits="userSpaceOnUse"/><linearGradient xlink:href="#p" id="j" x1="12.528" x2="35.533" y1="35.653" y2="48.359" gradientUnits="userSpaceOnUse"/><linearGradient xlink:href="#q" id="k" x1="16.453" x2="38.532" y1="39.617" y2="53.187" gradientUnits="userSpaceOnUse"/><linearGradient xlink:href="#p" id="l" x1="12.528" x2="35.533" y1="35.653" y2="48.359" gradientUnits="userSpaceOnUse"/><linearGradient xlink:href="#q" id="m" x1="16.453" x2="38.532" y1="39.617" y2="53.187" gradientUnits="userSpaceOnUse"/><linearGradient xlink:href="#p" id="n" x1="12.528" x2="35.533" y1="35.653" y2="48.359" gradientUnits="userSpaceOnUse"/><linearGradient xlink:href="#q" id="o" x1="16.453" x2="38.532" y1="39.617" y2="53.187" gradientUnits="userSpaceOnUse"/><filter id="c" width="1.346" height="1.216" x="-.139" y="-.091" style="color-interpolation-filters:sRGB"><feFlood flood-color="#000" flood-opacity=".498" result="flood"/><feGaussianBlur in="SourceGraphic" result="blur" stdDeviation=".4"/><feOffset dx=".2" dy="-.1" in="blur" result="offset"/><feComposite in="flood" in2="offset" operator="in" result="comp1"/><feComposite in="SourceGraphic" in2="comp1" result="fbSourceGraphic"/><feColorMatrix in="fbSourceGraphic" result="fbSourceGraphicAlpha" values="0 0 0 -1 0 0 0 0 -1 0 0 0 0 -1 0 0 0 0 1 0"/><feFlood flood-color="#000" flood-opacity=".498" result="flood"/><feGaussianBlur in="fbSourceGraphic" result="blur" stdDeviation=".7"/><feOffset dx="1.5" dy="1.5" in="blur" result="offset"/><feComposite in="flood" in2="offset" operator="in" result="comp1"/><feComposite in="fbSourceGraphic" in2="comp1" result="comp2"/></filter><filter id="s" width="2.6" height="2.6" x="-.8" y="-.8" style="color-interpolation-filters:sRGB"><feOffset flood-color="#FEDF81"/><feGaussianBlur result="blur" stdDeviation="2"/><feFlood flood-color="#FEDF82" flood-opacity="1" result="flood"/><feComposite in="flood" in2="SourceGraphic" operator="in" result="composite"/><feBlend in="blur" in2="composite"/></filter><filter id="r" width="1.103" height="1.153" x="-.051" y="-.076" style="color-interpolation-filters:sRGB"><feOffset/><feGaussianBlur result="blur" stdDeviation="1"/><feFlood flood-color="#FEDF82" flood-opacity="1" result="flood"/><feComposite in="flood" in2="SourceGraphic" operator="in" result="composite"/><feBlend in="blur" in2="composite"/></filter></defs><path d="M26.998 15.55s.04-.006-.125-.12c-.018-.013-.86-.592-2.327-.979a8.5 8.5 0 0 0-2.534-.285c-.57.026-1.21.121-1.88.345a9 9 0 0 0-.994.393c-1.328.669-2.692 1.587-4.055 2.832-1.173 1.072-2.305 2.348-3.376 3.833-1.922 2.664-3.521 5.824-4.723 9.141a43 43 0 0 0-1.367 4.542 33 33 0 0 0-.719 4.032c-.131 1.218-.159 2.323-.06 3.228.05.46.136.901.276 1.296.072.202.161.403.274.593a2.2 2.2 0 0 0 1.136.98c.248.095.5.145.738.165.242.02.48.01.71-.016a5 5 0 0 0 .693-.131 9 9 0 0 0 1.434-.518 19 19 0 0 0 1.57-.807c1.168-.665 2.42-1.5 3.61-2.35a96 96 0 0 0 4.67-3.573c3.044-2.47 3.764-3.099 8.573-7.073 2.89-2.388 6.093-5.004 8.97-7.154 2.8-2.091 4.91-3.108 6.442-3.586.853-.266 1.521-.363 2.024-.388a4.6 4.6 0 0 1 1.471.147c.29.08.562.18.746.245.29.104.497.176.714.229.912.221 1.784-.291 1.784-.291s.26-.09.492-.35c.234-.263.487-.762-.016-1.643-.198-.347-.543-.77-1.1-1.158a5.2 5.2 0 0 0-1.587-.734 7 7 0 0 0-.28-.072 8.2 8.2 0 0 0-2.46-.18c-.834.059-1.811.235-2.946.61-2.019.67-4.48 1.953-7.49 4.251-2.93 2.239-6.175 4.94-9.038 7.345-4.236 3.557-6.043 5.101-8.498 7.092l-.53.43c-1.163.945-2.598 2.11-3.946 3.156-1.12.868-2.24 1.702-3.246 2.37q-.688.46-1.27.788a9 9 0 0 1-.944.47 4 4 0 0 1-.306.112c-.077.024-.134.04-.156.05-.024.012-.016.02.015.044.033.025.078.059.12.112.017.031.005.043-.022.026a.4.4 0 0 1-.112-.136c-.092-.15-.188-.39-.27-.723-.162-.662-.247-1.589-.227-2.73a27 27 0 0 1 .376-3.83 38 38 0 0 1 1.022-4.454c.96-3.278 2.344-6.445 4.076-9.132.966-1.498 2.006-2.797 3.101-3.893 1.273-1.273 2.572-2.225 3.853-2.917a5 5 0 0 1 .93-.425 6.8 6.8 0 0 1 1.81-.338 8.7 8.7 0 0 1 2.467.247c1.611.388 2.13.746 2.34.836.183.077.167.046.167.046" style="display:inline;fill:#ffce33;fill-opacity:1;fill-rule:nonzero;stroke:none;stroke-width:1;stroke-linejoin:round;stroke-dasharray:none;stroke-opacity:1;filter:url(#r)" transform="translate(1.868 -.099)"/><circle cx="51.953" cy="18.904" r="3" style="fill:#ffce33;fill-opacity:1;stroke:none;stroke-width:1;stroke-linejoin:round;stroke-dasharray:none;stroke-opacity:1;filter:url(#s)"/><path d="M88.928 26.106v-3.724H74.116v19.236h4.144v-7.616h9.688v-3.724H78.26v-4.172zm12.516 1.036v8.568c0 1.568-1.316 2.8-3.024 2.8-1.624 0-2.772-1.232-2.772-3.024v-8.344h-3.92v9.212c0 3.304 2.212 5.6 5.376 5.6 1.848 0 3.444-.812 4.34-2.1v1.764h4.088V27.142Zm25.312-.336c-2.212 0-3.92 1.344-4.34 3.36-.784-2.044-2.688-3.36-4.956-3.36-1.792 0-3.22.868-3.92 2.24v-1.904h-4.088v14.476h4.088v-8.736c0-1.54 1.148-2.632 2.8-2.632 1.512 0 2.548 1.176 2.548 2.856v8.54h3.948v-8.764c0-1.54 1.148-2.632 2.772-2.632 1.512 0 2.576 1.176 2.576 2.856v8.54h3.92v-9.24c0-3.276-2.324-5.6-5.348-5.6m15.876 15.148c4.34 0 7.896-3.416 7.896-7.588s-3.556-7.56-7.896-7.56-7.896 3.388-7.896 7.56 3.556 7.588 7.896 7.588m0-3.444c-2.184 0-3.976-1.876-3.976-4.144s1.792-4.116 3.976-4.116 3.948 1.848 3.948 4.116-1.764 4.144-3.948 4.144m19.236-11.704c-1.876 0-3.472.812-4.368 2.1v-6.86h-4.088v19.572h4.088V33.05c0-1.568 1.316-2.8 3.024-2.8 1.624 0 2.772 1.232 2.772 3.024v8.344h3.92v-9.212c0-3.304-2.212-5.6-5.348-5.6m15.876 15.148c4.34 0 7.896-3.416 7.896-7.588s-3.556-7.56-7.896-7.56-7.896 3.388-7.896 7.56 3.556 7.588 7.896 7.588m0-3.444c-2.184 0-3.976-1.876-3.976-4.144s1.792-4.116 3.976-4.116 3.948 1.848 3.948 4.116-1.764 4.144-3.948 4.144m20.216-11.368v8.568c0 1.568-1.316 2.8-3.024 2.8-1.624 0-2.772-1.232-2.772-3.024v-8.344h-3.92v9.212c0 3.304 2.212 5.6 5.376 5.6 1.848 0 3.444-.812 4.34-2.1v1.764h4.088V27.142Zm13.3 14.812c3.556 0 5.908-1.82 5.908-4.676 0-3.164-2.8-4.004-5.292-4.648-1.96-.532-2.772-.756-2.772-1.54 0-.812.84-1.344 1.96-1.344 1.316 0 2.884.644 4.2 1.484l1.484-2.632c-1.596-1.064-3.64-1.792-5.684-1.792-3.444 0-5.656 1.96-5.656 4.704 0 2.856 2.296 3.668 5.264 4.396 1.596.392 2.772.784 2.772 1.708 0 .84-.728 1.344-2.1 1.344-1.568 0-3.472-.7-4.956-1.764l-1.652 2.576c1.736 1.4 4.2 2.184 6.524 2.184m15.428-3.164c-1.988 0-3.332-1.372-3.696-3.332h10.892c0-5.376-2.744-8.652-7.28-8.652-4.228 0-7.504 3.164-7.504 7.532 0 4.452 3.416 7.616 7.728 7.616 2.128 0 4.62-.896 5.908-2.24l-2.296-2.352c-.924.84-2.408 1.428-3.752 1.428m-.028-8.82c1.82 0 2.968 1.26 3.304 3.052h-6.944c.448-1.848 1.82-3.052 3.64-3.052" aria-label="Fumohouse" style="font-weight:700;font-size:28px;font-family:&quot;Clarity City&quot;;-inkscape-font-specification:&quot;Clarity City Bold&quot;;fill:currentColor;stroke-width:3;stroke-linejoin:round"/></svg>
